<svg width="123" height="63" viewBox="0 0 123 63" fill="none" xmlns="http://www.w3.org/2000/svg">
<path d="M59.8784 6.82848C60.3596 10.5514 64.6902 12.49 67.8853 13.3002C71.3498 14.1778 76.0654 14.091 77.8554 10.4067C78.1153 9.84731 77.2876 9.35543 77.0182 9.91483C75.4302 13.2326 71.244 13.1844 68.1451 12.4128C66.5002 11.9917 64.9361 11.3008 63.5162 10.3681C62.8547 9.99618 62.2789 9.48873 61.8262 8.87884C61.3735 8.26896 61.0542 7.57033 60.8889 6.82848C60.8119 6.22086 59.8495 6.21121 59.9265 6.82848H59.8784Z" fill="#BE4E2E"/>
<path d="M57.9827 10.3978C60.0332 13.0022 62.8014 14.9462 65.944 15.9886C69.0866 17.031 72.4654 17.126 75.6614 16.2619C75.789 16.2286 75.8982 16.1459 75.965 16.032C76.0318 15.918 76.0507 15.7821 76.0175 15.6542C75.9843 15.5263 75.9018 15.4169 75.7881 15.35C75.6744 15.283 75.5388 15.2641 75.4112 15.2974C72.3879 16.1134 69.1918 16.02 66.2211 15.0287C63.2504 14.0375 60.6363 12.1922 58.7045 9.72267C58.3292 9.23078 57.6459 9.91556 58.0212 10.3978H57.9827Z" fill="#BE4E2E"/>
<path d="M57.9827 13.5609C60.0316 16.1673 62.7997 18.1127 65.9428 19.1553C69.086 20.1979 72.4655 20.2917 75.6614 19.4249C75.789 19.3917 75.8982 19.309 75.965 19.195C76.0318 19.0811 76.0507 18.9452 76.0175 18.8173C75.9843 18.6894 75.9018 18.58 75.7881 18.513C75.6744 18.4461 75.5388 18.4272 75.4112 18.4605C72.388 19.2791 69.1911 19.1869 66.2199 18.1955C63.2486 17.204 60.6347 15.3572 58.7045 12.8858C58.3292 12.3939 57.6459 13.0787 58.0212 13.5609H57.9827Z" fill="#BE4E2E"/>
<path d="M7.29491 51.1663L6.87147 4.56253L3.98438 4.23461V2.45996H12.6457L17.9868 16.9272L22.9911 2.45996H31.2771V4.23461L28.9482 4.49502C28.9482 5.82601 28.9482 7.17628 28.9482 8.54585C28.9482 9.91541 28.9482 11.2753 28.9482 12.6256V13.8409C28.9482 15.2008 28.9482 16.5511 28.9482 17.911C28.9482 19.2709 28.9482 20.6212 28.9482 21.9811L31.3733 22.2415V24.0161H20.9124V22.2415L23.2991 21.9425C23.3472 20.6115 23.3568 19.3095 23.3472 18.0846C23.3376 16.8597 23.3472 15.6444 23.3472 14.5739L23.4145 7.32095L17.6019 24.0161H15.0901L8.8347 7.25344L8.9983 13.8119C9.12662 26.2345 9.25493 38.6538 9.38325 51.0699L7.29491 51.1663Z" fill="#BE4E2E"/>
<path d="M40.6505 24.508C39.1834 24.5504 37.7296 24.2186 36.4257 23.5435C35.2028 22.8812 34.1994 21.8756 33.5386 20.6501C32.8075 19.2609 32.4462 17.7062 32.4896 16.1363C32.4315 14.5016 32.8603 12.8866 33.7214 11.4971C34.4897 10.2614 35.5815 9.26057 36.878 8.60368C38.1241 7.96839 39.5026 7.63788 40.9007 7.6392C42.1947 7.61233 43.4708 7.94623 44.5865 8.60368C45.5741 9.18808 46.3726 10.0453 46.8866 11.0728C47.431 12.1818 47.7017 13.4056 47.6757 14.6413C47.679 15.2256 47.6144 15.8082 47.4833 16.3774H38.0328C38.0024 17.7978 38.5115 19.1768 39.4571 20.2353C39.8421 20.6287 40.302 20.9407 40.8095 21.1528C41.317 21.3648 41.8618 21.4727 42.4116 21.4699C43.2085 21.4911 43.9984 21.3156 44.7116 20.9587C45.3288 20.6268 45.8905 20.2006 46.3765 19.6952L47.5218 20.7465C46.9168 21.9673 45.9573 22.9761 44.7694 23.64C43.4917 24.2737 42.0746 24.5723 40.6505 24.508ZM40.5831 9.34633C40.2294 9.37848 39.8896 9.49966 39.5952 9.69863C39.3008 9.89759 39.0613 10.1679 38.8989 10.4844C38.2622 11.7703 37.9641 13.1979 38.0328 14.6317H40.8141C41.0969 14.6668 41.384 14.6429 41.6573 14.5616C41.9305 14.4803 42.184 14.3432 42.402 14.1591C42.7204 13.6824 42.8633 13.1095 42.8062 12.5388C42.8787 11.6768 42.6471 10.8167 42.1517 10.1083C41.965 9.87041 41.7267 9.67822 41.455 9.54622C41.1832 9.41422 40.8851 9.34587 40.5831 9.34633Z" fill="black"/>
<path d="M48.898 24.0161V22.4729L50.6976 22.0775C50.6976 21.248 50.6976 20.4186 50.6976 19.5795C50.6976 18.7404 50.6976 17.9302 50.6976 17.12V3.37615L48.667 3.04823V1.66902L55.6057 0.193359L56.135 0.521283L56.0002 5.12187V17.12C56.0002 17.9591 56.0002 18.7886 56.0002 19.618C56.0002 20.4475 56.0002 21.2769 56.0002 22.1064L57.7998 22.4729V24.0161H48.898Z" fill="black"/>
<path d="M67.8855 24.5078C66.3417 24.5466 64.8149 24.1774 63.4586 23.4373C62.2297 22.7436 61.227 21.7086 60.5715 20.457C59.8795 19.0795 59.5358 17.5526 59.5707 16.0108C59.5139 14.4629 59.88 12.9288 60.6293 11.5741C61.3463 10.3552 62.381 9.35497 63.6222 8.68068C64.9182 7.97552 66.3724 7.61366 67.847 7.6294C69.3276 7.61504 70.7876 7.97672 72.091 8.68068C73.3276 9.35461 74.3561 10.3554 75.0648 11.5741C75.8327 12.9272 76.2186 14.4642 76.1811 16.0204C76.2152 17.5675 75.8646 19.0988 75.161 20.4763C74.5049 21.725 73.5022 22.7567 72.2739 23.4469C70.9287 24.1788 69.4157 24.5446 67.8855 24.5078ZM67.8855 22.8007C68.3504 22.7849 68.7988 22.624 69.168 22.3404C69.5373 22.0569 69.8089 21.6648 69.945 21.219C70.4841 19.5815 70.7157 17.8582 70.6282 16.1361C70.7167 14.4014 70.4851 12.6652 69.945 11.0147C69.8199 10.5584 69.5487 10.1558 69.1732 9.86885C68.7977 9.58192 68.3385 9.42651 67.8663 9.42651C67.394 9.42651 66.9349 9.58192 66.5593 9.86885C66.1838 10.1558 65.9126 10.5584 65.7875 11.0147C65.2426 12.6641 65.0108 14.4012 65.1043 16.1361C65.0118 17.8584 65.2436 19.5827 65.7875 21.219C65.927 21.6701 66.2048 22.0658 66.5814 22.3497C66.958 22.6337 67.4143 22.7915 67.8855 22.8007Z" fill="black"/>
<path d="M89.6832 24.3729L89.4137 22.5018C88.832 23.1456 88.1198 23.6576 87.3249 24.0035C86.53 24.3495 85.6705 24.5214 84.804 24.508C83.627 24.5184 82.4728 24.1831 81.4838 23.5435C80.4441 22.8607 79.6302 21.8839 79.1453 20.7368C78.5356 19.316 78.2433 17.7787 78.2888 16.2327C78.2454 14.6342 78.5992 13.0499 79.3185 11.6225C79.9409 10.4231 80.8668 9.4087 82.0035 8.68081C83.041 8.00589 84.2504 7.6443 85.4873 7.63916C86.2547 7.62456 87.0162 7.77588 87.72 8.08283C88.3913 8.39825 88.9958 8.84032 89.5003 9.38488V3.37615L87.2099 3.04823V1.66902L94.062 0.193359L94.5913 0.521283L94.4565 5.12187V22.1836L96.0637 22.5115V24.0547L89.6832 24.3729ZM83.8224 16.1748C83.7378 17.5998 84.0724 19.0184 84.7848 20.2546C85.041 20.6801 85.4023 21.0324 85.8338 21.2773C86.2653 21.5223 86.7525 21.6517 87.2484 21.6531C87.9902 21.6528 88.7073 21.3859 89.2694 20.9008V11.1209C88.7258 10.6771 88.0458 10.4352 87.3447 10.4362C86.8424 10.4375 86.3488 10.5677 85.9108 10.8141C85.4729 11.0606 85.1051 11.4152 84.8425 11.8443C84.0706 13.1501 83.7147 14.6609 83.8224 16.1748Z" fill="black"/>
<path d="M97.7669 24.0157V22.4726L99.528 22.0771C99.528 21.2863 99.528 20.4375 99.528 19.5213V15.5476C99.528 14.6506 99.528 13.908 99.528 13.3003C99.528 12.6927 99.528 12.0754 99.451 11.4196L97.4204 11.1206V9.83785L104.292 7.63883L104.85 8.00533L104.754 12.7602V19.5116C104.754 20.4761 104.754 21.3152 104.754 22.1254L106.39 22.4533V23.9964L97.7669 24.0157ZM102.117 5.21797C101.406 5.21637 100.72 4.95193 100.192 4.47532C99.9278 4.24627 99.7174 3.96145 99.576 3.64128C99.4345 3.32112 99.3656 2.97355 99.374 2.62352C99.364 2.26903 99.4321 1.91669 99.5735 1.5916C99.7149 1.26652 99.9261 0.976688 100.192 0.742776C100.735 0.264669 101.433 0.000976562 102.155 0.000976562C102.878 0.000976563 103.576 0.264669 104.118 0.742776C104.391 0.981882 104.606 1.27953 104.748 1.61352C104.889 1.94752 104.954 2.30925 104.936 2.67174C104.945 3.02178 104.876 3.36934 104.735 3.68951C104.593 4.00967 104.383 4.2945 104.118 4.52355C103.566 5.00606 102.849 5.255 102.117 5.21797Z" fill="black"/>
<path d="M116.196 24.5081C114.779 24.5135 113.381 24.183 112.116 23.5436C110.879 22.9135 109.849 21.939 109.151 20.737C108.37 19.3233 107.987 17.7228 108.045 16.1075C108.007 14.5138 108.421 12.9419 109.238 11.5744C110.017 10.3304 111.127 9.32846 112.443 8.68095C113.827 8.01883 115.346 7.68862 116.879 7.71647C117.943 7.69629 118.998 7.9241 119.959 8.38196C120.803 8.77473 121.537 9.37122 122.095 10.118C122.622 10.8104 122.936 11.6415 123 12.5099C122.893 13.0132 122.61 13.4616 122.203 13.7746C121.795 14.0876 121.29 14.2445 120.777 14.2171C120.466 14.2183 120.158 14.1575 119.87 14.0383C119.583 13.9191 119.322 13.7438 119.102 13.5227C118.54 12.8451 118.249 11.9824 118.284 11.1018L118.053 9.46218C117.958 9.44763 117.86 9.44763 117.765 9.46218H117.409C116.747 9.47995 116.106 9.69855 115.57 10.0891C114.902 10.5806 114.382 11.2483 114.069 12.0181C113.634 13.1587 113.434 14.376 113.482 15.5963C113.378 17.1468 113.824 18.6844 114.743 19.9365C115.39 20.6943 116.276 21.2085 117.254 21.3943C118.231 21.5801 119.243 21.4265 120.122 20.9588C120.728 20.6073 121.271 20.1576 121.73 19.6278L122.875 20.6502C122.319 21.8938 121.387 22.93 120.209 23.6111C118.971 24.2509 117.588 24.5599 116.196 24.5081Z" fill="black"/>
<path d="M9.14778 49.0914C7.78717 49.0914 6.39012 48.9331 4.95663 48.6165C3.52313 48.3 2.28401 47.813 1.23926 47.1556L1.45793 41.7499H4.84729L5.57619 46.2424C6.13501 46.4616 6.69383 46.632 7.25265 46.7538C7.81147 46.8512 8.43103 46.8999 9.11133 46.8999C10.4233 46.8999 11.4195 46.5712 12.0998 45.9137C12.7801 45.2319 13.1203 44.404 13.1203 43.43C13.1203 42.456 12.8651 41.7012 12.3549 41.1655C11.869 40.6298 11.0794 40.1184 9.98601 39.6314L8.41888 38.9374C6.28079 37.9391 4.61648 36.8312 3.42595 35.6137C2.25971 34.3962 1.6766 32.7769 1.6766 30.7558C1.6766 28.5643 2.49053 26.8477 4.1184 25.6058C5.77056 24.3396 7.9694 23.7065 10.7149 23.7065C12.0269 23.7065 13.2782 23.877 14.4687 24.2179C15.6835 24.5344 16.7283 24.9849 17.603 25.5693L17.3114 30.6828H13.9585L13.266 26.3729C12.8773 26.2268 12.4886 26.1172 12.0998 26.0441C11.7111 25.9467 11.2859 25.898 10.8242 25.898C9.77949 25.898 8.89267 26.2024 8.16377 26.8112C7.43487 27.4199 7.07043 28.2234 7.07043 29.2218C7.07043 30.1958 7.34984 30.975 7.90866 31.5594C8.49177 32.1194 9.31786 32.643 10.3869 33.13L12.0998 33.897C14.408 34.944 16.0723 36.052 17.0927 37.2208C18.1375 38.3652 18.6599 39.8627 18.6599 41.7133C18.6599 43.8561 17.8459 45.6215 16.2181 47.0094C14.6145 48.3974 12.2577 49.0914 9.14778 49.0914Z" fill="black"/>
<path d="M27.3064 48.9453C25.6785 48.9453 24.403 48.5557 23.4797 47.7765C22.5564 46.9729 22.0948 45.6702 22.0948 43.8683C22.0948 43.2352 22.0948 42.6508 22.0948 42.1151C22.1191 41.5551 22.1312 40.922 22.1312 40.2158V33.2395H19.7623V31.0846L22.4592 30.7193L24.2815 25.6058H27.9989L27.926 30.7558H31.7527V33.2395H27.926V43.4665C27.926 44.3188 28.096 44.9519 28.4362 45.3658C28.8006 45.7554 29.2501 45.9502 29.7846 45.9502C30.4164 45.9502 31.0724 45.6824 31.7527 45.1467L32.6638 46.0233C32.1779 46.9486 31.4976 47.6669 30.6229 48.1782C29.7725 48.6896 28.667 48.9453 27.3064 48.9453Z" fill="black"/>
<path d="M33.4072 48.3974V46.6807L35.4117 46.279C35.436 45.378 35.4481 44.4162 35.4481 43.3935C35.4481 42.3708 35.4481 41.482 35.4481 40.7272V38.5722C35.4481 37.8904 35.436 37.3303 35.4117 36.892C35.4117 36.4537 35.3995 36.052 35.3752 35.6867C35.3752 35.2971 35.3631 34.8588 35.3388 34.3718L33.1156 34.0431V32.6186L40.2953 30.1714L40.9513 30.5732L41.2793 34.8832C41.7895 33.3248 42.5063 32.156 43.4295 31.3768C44.3528 30.5732 45.2639 30.1714 46.1629 30.1714C46.9647 30.1714 47.6571 30.4028 48.2402 30.8654C48.8234 31.3037 49.1878 31.9733 49.3336 32.8743C49.3093 33.8239 49.0542 34.5666 48.5682 35.1023C48.0823 35.6137 47.4749 35.8693 46.746 35.8693C45.7255 35.8693 44.7901 35.2971 43.9398 34.1527L43.7211 33.8605C43.1866 34.3718 42.6885 35.0171 42.2268 35.7963C41.7895 36.5755 41.4737 37.3912 41.2793 38.2435V40.7272C41.2793 41.482 41.2793 42.3464 41.2793 43.3204C41.2793 44.2944 41.2914 45.2076 41.3157 46.0598L44.1949 46.6807V48.3974H33.4072Z" fill="black"/>
<path d="M50.4577 48.3974V46.6807L52.4257 46.2424C52.45 45.3658 52.4621 44.4162 52.4621 43.3935C52.4621 42.3708 52.4621 41.482 52.4621 40.7272V38.974C52.4621 37.9756 52.45 37.1477 52.4257 36.4903C52.4257 35.8085 52.4014 35.1023 52.3528 34.3718L50.0932 34.0431V32.6186L57.7466 30.1714L58.3662 30.5732L58.2569 35.8693V40.7272C58.2569 41.482 58.2569 42.383 58.2569 43.43C58.2569 44.4527 58.269 45.4145 58.2933 46.3155L60.1155 46.6807V48.3974H50.4577ZM55.3048 27.4686C54.4545 27.4686 53.7256 27.2008 53.1181 26.6651C52.5107 26.105 52.207 25.411 52.207 24.5831C52.207 23.7309 52.5107 23.0369 53.1181 22.5012C53.7256 21.9412 54.4545 21.6611 55.3048 21.6611C56.1552 21.6611 56.8841 21.9412 57.4915 22.5012C58.0989 23.0369 58.4026 23.7309 58.4026 24.5831C58.4026 25.411 58.0989 26.105 57.4915 26.6651C56.8841 27.2008 56.1552 27.4686 55.3048 27.4686Z" fill="black"/>
<path d="M61.9162 48.3974V46.6807L63.8842 46.2424C63.9085 45.3658 63.9206 44.4162 63.9206 43.3935C63.9206 42.3708 63.9206 41.482 63.9206 40.7272V38.6087C63.9206 37.6104 63.9085 36.8433 63.8842 36.3076C63.8842 35.7476 63.8599 35.1023 63.8113 34.3718L61.5881 34.0431V32.6186L68.7678 30.1714L69.4238 30.5732L69.6425 33.203C70.59 32.0829 71.5254 31.3037 72.4487 30.8654C73.3963 30.4028 74.4046 30.1714 75.4736 30.1714C77.0529 30.1714 78.3163 30.695 79.2639 31.742C80.2357 32.7891 80.7217 34.3596 80.7217 36.4537V40.7272C80.7217 41.5307 80.7217 42.4438 80.7217 43.4665C80.7217 44.4649 80.7338 45.4145 80.7581 46.3155L82.5804 46.6807V48.3974H72.9589V46.6807L74.8541 46.279C74.8784 45.378 74.8905 44.4284 74.8905 43.43C74.8905 42.4073 74.8905 41.5064 74.8905 40.7272V36.892C74.8905 35.7232 74.7326 34.9075 74.4167 34.4449C74.1009 33.9579 73.5906 33.7144 72.886 33.7144C71.9385 33.7144 70.8937 34.1527 69.7518 35.0293V40.7272C69.7518 41.482 69.7518 42.383 69.7518 43.43C69.7518 44.4527 69.7639 45.4145 69.7882 46.3155L71.5011 46.6807V48.3974H61.9162Z" fill="black"/>
<path d="M92.2824 40.2158C93.1327 40.2158 93.7644 39.8384 94.1775 39.0835C94.6148 38.3287 94.8335 37.306 94.8335 36.0154C94.8335 34.7249 94.6148 33.7265 94.1775 33.0204C93.7644 32.2899 93.157 31.9246 92.3552 31.9246C91.5292 31.9246 90.9096 32.2899 90.4966 33.0204C90.0835 33.7509 89.877 34.7614 89.877 36.052C89.877 37.3425 90.0714 38.3652 90.4601 39.1201C90.8489 39.8506 91.4563 40.2158 92.2824 40.2158ZM87.4352 51.429C87.4352 52.5004 87.8361 53.2796 88.6379 53.7666C89.4397 54.2779 90.6666 54.5336 92.3188 54.5336C94.141 54.5336 95.5138 54.2657 96.4371 53.73C97.3603 53.1943 97.822 52.5247 97.822 51.7212C97.822 51.1855 97.6276 50.6985 97.2389 50.2602C96.8501 49.8462 96.1577 49.6392 95.1615 49.6392H91.3348C89.9985 49.6392 88.893 49.5297 88.0183 49.3105C87.8239 49.6514 87.6782 49.9801 87.581 50.2967C87.4838 50.6132 87.4352 50.9907 87.4352 51.429ZM92.3188 41.9325C91.0554 41.9325 89.9499 41.7864 89.0023 41.4942C88.7108 42.0055 88.565 42.5656 88.565 43.1743C88.565 43.5883 88.7229 43.9292 89.0388 44.197C89.3546 44.4405 89.9013 44.5623 90.6788 44.5623H94.9428C96.7894 44.5623 98.2593 44.7936 99.3526 45.2563C100.446 45.6946 101.223 46.3155 101.685 47.119C102.171 47.8982 102.414 48.8235 102.414 49.8949C102.414 51.1124 102.013 52.2325 101.211 53.2552C100.41 54.3023 99.2069 55.1302 97.6033 55.7389C96.024 56.372 94.0682 56.6886 91.7357 56.6886C89.7191 56.6886 88.1398 56.4816 86.9979 56.0676C85.8559 55.678 85.0541 55.1545 84.5925 54.4971C84.1309 53.8396 83.9001 53.1456 83.9001 52.4151C83.9001 50.8567 84.9084 49.6027 86.925 48.6531C86.1718 48.3365 85.6251 47.9226 85.285 47.4112C84.9691 46.8999 84.8112 46.3398 84.8112 45.7311C84.8112 44.8788 85.0541 44.0753 85.5401 43.3204C86.0503 42.5412 86.7549 41.762 87.6539 40.9828C86.6577 40.4715 85.9167 39.7897 85.4307 38.9374C84.9448 38.0852 84.7018 37.1355 84.7018 36.0885C84.7018 34.384 85.3214 32.9717 86.5605 31.8516C87.8239 30.7315 89.7434 30.1714 92.3188 30.1714C93.6308 30.1714 94.7728 30.3175 95.7446 30.6097C96.7165 30.9019 97.5061 31.3159 98.1135 31.8516L102.195 30.0984L102.778 30.4636V33.2761H99.3162C99.7535 34.0796 99.9722 35.0171 99.9722 36.0885C99.9722 37.7199 99.3405 39.1079 98.0771 40.2523C96.838 41.3724 94.9185 41.9325 92.3188 41.9325Z" fill="black"/>
<path d="M110.577 48.9453C108.268 48.9453 106.155 48.3852 104.235 47.2651L104.344 42.8091H107.26L107.88 46.4251C108.317 46.5955 108.754 46.7294 109.192 46.8268C109.629 46.8999 110.103 46.9364 110.613 46.9364C111.658 46.9364 112.459 46.766 113.018 46.4251C113.577 46.0598 113.857 45.5119 113.857 44.7814C113.857 44.2214 113.65 43.7344 113.237 43.3204C112.824 42.9065 112.01 42.5291 110.795 42.1882L108.827 41.6038C107.418 41.1898 106.325 40.5202 105.547 39.5949C104.794 38.6696 104.417 37.5251 104.417 36.1615C104.417 34.4814 105.073 33.0691 106.385 31.9246C107.697 30.7558 109.58 30.1714 112.034 30.1714C113.103 30.1714 114.087 30.3054 114.986 30.5732C115.91 30.8167 116.845 31.182 117.793 31.669L117.537 35.6502H114.622L113.893 32.509C113.383 32.3142 112.715 32.2168 111.889 32.2168C111.062 32.2168 110.394 32.3873 109.884 32.7282C109.398 33.0691 109.155 33.5804 109.155 34.2622C109.155 34.7492 109.35 35.1875 109.738 35.5771C110.127 35.9424 110.953 36.3198 112.217 36.7094L114.002 37.2208C115.727 37.7321 116.966 38.4626 117.72 39.4123C118.473 40.3619 118.849 41.5185 118.849 42.8821C118.849 44.8058 118.108 46.3033 116.626 47.3747C115.169 48.4217 113.152 48.9453 110.577 48.9453Z" fill="black"/>
</svg>
