<svg width="373" height="1132" viewBox="0 0 373 1132" fill="none" xmlns="http://www.w3.org/2000/svg">
<path d="M22.8424 1000.07C120.54 901.391 193.197 824.596 245.483 762.492C280.023 721.488 305.47 687.04 322.56 657.737C332.908 661.181 343.237 666.036 353.438 672.253C352.885 673.749 352.309 675.248 351.715 676.77C338.194 711.19 313.52 752.937 276.452 804.338C225.158 875.368 148.048 967.271 38.8235 1087.07L39.4262 1090.36C149.005 970.139 226.358 878.014 277.789 806.801C316.671 752.928 342.242 709.27 355.392 673.446C362.277 677.826 368.961 683.617 375.267 690.668C369.335 733.629 345.804 788.593 304.866 854.936C251.745 940.986 167.969 1048.36 55.0126 1175.33L55.6292 1178.69C168.995 1051.36 253.017 943.658 306.286 857.365C347.558 790.489 371.044 736.083 377.128 692.898C382.473 699.301 387.142 707.296 390.818 716.339C390.872 730.895 389.102 746.925 385.509 764.427C377.024 805.775 358.478 853.916 330.384 907.499C276.684 1009.93 189.824 1129.73 71.4282 1264.82L72.0413 1268.16C190.85 1132.66 278.035 1012.47 331.876 909.758C360.089 855.957 378.721 807.545 387.267 765.911C390.316 751.882 392.115 736.843 392.615 721.192C392.793 721.728 392.982 722.263 393.163 722.819C403.68 755.42 412.863 829.531 356.649 959.493C308.26 1071.28 223.177 1197.8 103.042 1336.76L107.2 1335.99C225.948 1198.19 310.135 1072.66 358.19 961.586C414.914 830.45 405.435 755.098 394.731 721.844C394.074 719.805 393.372 717.834 392.622 715.91C392.496 701.249 390.571 688.037 386.825 676.396C384.455 669.075 381.403 662.248 377.806 656.221C377.059 650.124 375.738 644.069 373.893 638.289C371.786 631.713 369.121 625.53 365.996 619.969C365.924 612.018 364.61 603.813 362.179 596.131C358.885 586.004 354.334 576.84 348.891 569.377C348.365 565.684 347.53 562.028 346.412 558.524C325.782 494.464 257.445 483.658 185.116 472.289C138.398 464.899 90.6442 457.365 55.5846 434.644C67.1853 369.54 98.5804 288.575 148.466 196.758C222.736 60.068 329.049 -83.2066 432.866 -186.487C438.23 -191.809 444.115 -197.561 450.354 -203.672C482.819 -235.403 524.89 -276.532 551.647 -315.951L548.356 -315.347C521.665 -277.236 480.828 -237.295 449.188 -206.383C442.948 -200.272 437.052 -194.518 431.693 -189.177C327.769 -85.7986 221.337 57.6352 146.982 194.478C96.9521 286.498 65.5208 367.823 53.86 433.527C50.1359 431.03 46.5668 428.348 43.1526 425.48C47.7295 355.284 80.9247 261.071 140.553 151.331C214.823 14.6409 321.136 -128.634 424.953 -231.914C430.316 -237.236 436.198 -243.007 442.441 -249.099C459.751 -266.016 479.849 -285.662 498.863 -306.269L494.475 -305.464C476.465 -286.18 457.634 -267.787 441.285 -251.812C435.046 -245.701 429.15 -239.947 423.787 -234.625C319.88 -131.152 213.435 12.2061 139.08 149.049C79.4686 258.512 46.2019 352.953 41.3988 423.956C37.402 420.495 33.5203 416.538 29.7935 412.127C26.9644 340.012 60.6149 236.411 127.577 113.173C201.847 -23.5167 308.171 -166.793 411.977 -270.072C419.823 -277.871 428.938 -286.355 438.675 -295.287L433.54 -294.345C425.305 -286.749 417.581 -279.521 410.811 -272.783C306.904 -169.309 200.459 -25.9516 126.104 110.892C59.5499 233.387 25.8121 336.945 27.9547 409.893C25.9463 407.367 24.0061 404.675 22.1439 401.831C5.38368 330.307 38.2313 213.799 115.827 71.0022C183.313 -53.2736 277.299 -182.881 371.825 -283.024L367.36 -282.205C273.852 -182.446 181.167 -54.2148 114.376 68.7164C38.2203 208.854 5.05358 324.243 19.3867 397.311C15.8145 391.235 12.7071 384.482 10.1652 377.271C-14.3534 307.347 17.5798 185.235 100.071 33.3936C157.123 -71.5948 233.083 -180.464 312.294 -272.104L308.125 -271.339C229.891 -180.31 155.012 -72.7191 98.5978 31.1118C15.5847 183.756 -16.3345 307.181 8.62188 378.378C11.843 387.527 15.9288 395.96 20.6853 403.276C22.7517 412.009 25.6753 420.371 29.3216 427.978C30.5114 438.277 32.826 448.504 36.1465 458.135C38.2681 464.16 40.7719 469.882 43.6052 475.181C44.8516 482.182 46.6251 489.064 48.8798 495.65C49.5577 512.762 52.2444 528.151 56.9813 541.671C82.5933 614.712 159.399 626.928 233.639 638.575C264.435 643.429 294.486 648.183 320.362 656.943C276.653 731.058 179.647 837.839 22.2686 996.822L22.8424 1000.07ZM354.329 669.813C344.31 663.609 334.161 658.74 323.988 655.257C329.739 645.405 334.985 634.755 339.688 623.382C347.45 627.521 355.068 633.123 362.379 640.067C360.438 650.678 357.738 660.654 354.329 669.813ZM346.074 595.63C314.435 568.061 264.548 560.212 212.59 552.016C148.855 541.936 83.2499 531.552 50.5006 482.848C50.6695 475.045 51.1567 467.375 51.9591 459.887C87.815 494.986 145.114 504.048 201.057 512.887C261.146 522.379 318.456 531.438 347.24 570.701C348.138 579.466 347.737 588.029 346.074 595.63ZM347.209 599.78C353.385 605.208 359.127 612.305 364.149 620.72C364.148 626.439 363.728 631.999 362.9 637.282C355.747 630.534 348.309 625.041 340.732 620.913C343.325 614.352 345.494 607.278 347.209 599.78ZM48.782 480.219C47.5291 478.211 46.3241 476.154 45.1745 474.029C43.7874 465.892 42.9589 457.703 42.706 449.629C45.1523 452.722 47.6829 455.595 50.2832 458.232C49.5024 465.411 49.001 472.753 48.782 480.219ZM48.7065 483.825C48.6904 485.654 48.6894 487.44 48.7102 489.223C47.8353 486.248 47.0608 483.224 46.3911 480.167C47.1397 481.403 47.921 482.634 48.7175 483.823L48.7065 483.825ZM50.4655 486.427C84.124 534.709 149.376 545.021 212.749 555.049C264.576 563.21 314.357 571.099 345.496 598.288C343.748 605.988 341.51 613.23 338.813 619.911C308.071 603.17 267.453 596.762 225.489 590.129C151.782 578.482 75.5743 566.431 50.5709 495.163C50.5012 492.31 50.4539 489.394 50.4655 486.427ZM375.628 687.873C369.464 681.048 362.954 675.39 356.253 671.03C359.578 661.998 362.228 652.194 364.157 641.783C368.42 646.115 372.42 651.285 376.049 657.152C377.076 667.712 376.928 678.103 375.614 687.797L375.628 687.873ZM378.303 661.096C381.034 666.115 383.374 671.64 385.246 677.491C388.635 688.451 390.514 700.094 390.723 711.429C387.012 703.245 382.528 696.002 377.507 690.08C378.763 680.886 379.032 671.093 378.303 661.096ZM372.31 639.306C373.656 643.536 374.695 647.932 375.401 652.382C372.043 647.362 368.422 642.889 364.608 639.05C365.363 634.247 365.811 629.233 365.945 624.082C368.424 628.775 370.565 633.892 372.307 639.287L372.31 639.306ZM349.32 573.696C353.885 580.414 357.715 588.412 360.552 597.156C362.554 603.444 363.737 610.13 364.013 616.701C359.108 608.948 353.618 602.348 347.762 597.166C349.31 589.944 349.84 581.942 349.316 573.677L349.32 573.696ZM55.0432 437.256C90.4294 460.212 138.343 467.814 185.247 475.229C256.982 486.57 324.742 497.266 344.724 559.462C345.421 561.664 346 563.931 346.454 566.232C316.598 528.108 260.031 519.148 200.774 509.798C144.878 500.97 87.5538 491.893 52.2004 456.938C52.9866 450.59 53.9379 444.048 55.0537 437.313L55.0432 437.256ZM42.9158 428.33C46.2394 431.117 49.7181 433.698 53.3296 436.138C52.2132 442.664 51.299 449.035 50.587 455.251C47.8326 452.429 45.1592 449.339 42.5846 446C42.4874 440.053 42.6015 434.172 42.9263 428.387L42.9158 428.33ZM29.9524 415.652C33.5808 419.806 37.3398 423.559 41.1979 426.879C40.8822 432.371 40.7465 437.946 40.7914 443.581C37.1851 438.627 33.8788 433.062 30.9476 427.012C30.5045 423.236 30.1758 419.463 29.9629 415.708L29.9524 415.652ZM28.6487 421.898C27.6703 419.597 26.7563 417.235 25.9106 414.822C25.0846 412.465 24.3257 410.062 23.6372 407.623C25.0691 409.617 26.5489 411.564 28.1026 413.419C28.2227 416.361 28.4098 419.174 28.6592 421.955L28.6487 421.898ZM42.5972 469.005C40.7738 465.199 39.1256 461.199 37.6714 457.051C34.9825 449.313 32.9802 441.152 31.7394 432.874C34.5222 438.089 37.5761 442.905 40.8503 447.241C41.0129 454.431 41.5979 461.719 42.5972 469.005ZM233.425 635.552C159.718 623.905 83.5094 611.854 58.5061 540.587C54.2485 528.017 51.6517 514.538 50.9227 501.224C78.2532 569.846 153.178 581.701 225.715 593.15C267.27 599.72 307.472 606.088 337.864 622.342C333.039 633.813 327.67 644.551 321.793 654.481C295.475 645.351 264.829 640.51 233.425 635.552Z" fill="#FCD551" fill-opacity="0.3"/>
</svg>
