<svg width="1819" height="556" viewBox="0 0 1819 556" fill="none" xmlns="http://www.w3.org/2000/svg">
<path d="M1491.67 557.3C1390.9 420.247 1311.83 317.67 1246.66 242.55C1203.63 192.928 1166.8 155.562 1134.6 129.289C1140.75 117.425 1148.59 105.852 1158.06 94.6939C1159.77 95.6491 1161.47 96.6316 1163.2 97.6409C1202.27 120.57 1248.08 158.395 1303.2 213.059C1379.37 288.684 1475.87 399.531 1599.99 554.562L1604.08 554.46C1479.52 398.92 1382.8 287.737 1306.44 211.911C1248.67 154.58 1200.72 115.306 1159.88 92.5571C1166.49 85.0615 1174.78 78.0789 1184.51 71.7927C1235.36 87.1692 1297.39 126.132 1369.86 188.331C1463.85 269.033 1577.8 390.898 1709.88 551.813L1714.06 551.709C1581.61 390.229 1467.32 268.003 1373.07 187.076C1300.02 124.372 1238.66 85.5695 1187.56 69.9666C1196.33 64.7212 1206.9 60.5967 1218.54 57.8736C1236.17 60.5856 1255.23 65.7861 1275.72 73.4748C1324.14 91.6325 1378.85 123.26 1438.33 167.482C1552.03 252.009 1680.43 379.979 1821.3 549.026L1825.46 548.921C1684.17 379.297 1555.36 250.86 1441.35 166.108C1381.63 121.701 1326.6 89.9168 1277.85 71.6307C1261.46 65.2635 1243.6 60.2169 1224.76 56.6246C1225.44 56.5119 1226.12 56.3855 1226.83 56.2721C1268.29 49.7673 1359.72 52.797 1506.26 145.62C1632.29 225.507 1769.16 352.608 1914.39 524.498L1914.26 519.321C1770.17 349.329 1634.32 223.501 1509.09 144.155C1361.23 50.4902 1268.23 47.5815 1225.95 54.189C1223.36 54.5956 1220.84 55.0688 1218.37 55.609C1200.6 52.9643 1184.25 52.772 1169.45 55.0833C1160.13 56.5548 1151.29 58.9453 1143.31 62.1478C1135.79 61.8877 1128.21 62.3313 1120.87 63.4612C1112.51 64.7556 1104.52 66.8009 1097.19 69.5212C1087.55 68.091 1077.38 68.1152 1067.61 69.5913C1054.73 71.6442 1042.77 75.4032 1032.7 80.5661C1028.13 80.4975 1023.55 80.81 1019.1 81.4942C937.644 94.235 911.527 174.866 883.968 260.221C866.11 315.344 847.881 371.693 813.696 409.782C737.128 383.321 645.144 329.88 543.557 251.993C392.322 136.037 239.234 -19.9518 134.067 -165.288C128.65 -172.793 122.812 -181.013 116.608 -189.729C84.4062 -235.07 42.6643 -293.827 0.0692021 -333.728L0.171732 -329.629C41.197 -290.059 81.7364 -233.021 113.105 -188.834C119.309 -180.119 125.147 -171.886 130.587 -164.381C235.853 -18.8968 389.111 137.265 540.515 253.354C642.321 331.455 734.733 385.008 812.016 411.656C808.284 415.686 804.357 419.493 800.234 423.077C716.165 404.144 608.494 345.997 487.076 252.901C335.841 136.944 182.753 -19.0445 77.5858 -164.38C72.1687 -171.886 66.3081 -180.105 60.1272 -188.821C42.9595 -212.996 23.0203 -241.065 1.71343 -268.007L1.85014 -262.543C21.748 -237.07 40.4121 -210.773 56.6236 -187.941C62.8281 -179.225 68.6654 -170.992 74.0824 -163.486C179.466 -18.0053 332.63 138.158 484.034 254.248C605.118 347.271 713.053 405.548 798.056 424.909C793.105 429.085 787.576 433.027 781.528 436.695C693.722 426.357 574.776 365.868 438.426 261.321C287.191 145.364 134.102 -10.6374 28.9353 -155.96C20.9944 -166.942 12.4673 -179.592 3.51724 -193.078L3.67718 -186.684C11.2978 -175.27 18.5698 -164.544 25.4322 -155.066C130.816 -9.58473 283.98 146.579 435.384 262.669C570.913 366.58 689.79 427.167 778.473 438.494C775.033 440.442 771.405 442.276 767.608 443.987C677.86 450.62 543.143 388.639 385.153 267.493C247.646 162.114 108.744 23.6503 5.59961 -109.844L5.73871 -104.285C108.613 27.9045 246.097 164.531 382.11 268.813C537.157 387.709 670.459 449.862 761.612 446.461C753.579 449.624 744.814 452.096 735.603 453.796C646.31 470.123 504.637 408.179 336.637 279.382C220.478 190.31 103.232 77.6168 7.45403 -35.7226L7.5839 -30.5317C102.809 81.5092 218.715 192.65 333.594 280.73C502.467 410.311 645.731 472.488 736.648 455.875C748.334 453.723 759.318 450.388 769.079 446.028C780.04 445.194 790.717 443.252 800.618 440.291C813.308 440.816 826.126 439.967 838.414 437.787C846.109 436.369 853.511 434.431 860.463 432.014C869.174 431.842 877.84 431.009 886.24 429.537C907.076 431.982 926.21 431.667 943.475 428.515C1036.75 411.46 1066.19 320.85 1094.45 233.235C1106.2 196.896 1117.69 161.438 1133.22 131.798C1214.57 198.832 1325.27 336.594 1487.62 557.374L1491.67 557.3ZM1155.28 93.1505C1145.86 104.09 1138.03 115.443 1131.87 127.088C1121.05 118.249 1109.16 109.868 1096.3 102.007C1102.79 93.405 1111.02 85.255 1120.82 77.7327C1133.29 82.1064 1144.85 87.277 1155.28 93.1505ZM1063.94 88.984C1024.54 122.01 1005.52 180.88 985.687 242.189C961.328 317.391 936.243 394.797 871.057 425.133C861.648 423.44 852.459 421.386 843.551 418.987C892.866 382.295 914.765 314.687 936.136 248.678C959.089 177.777 980.988 110.155 1033.99 82.8166C1044.77 83.4022 1055.05 85.5207 1063.94 88.984ZM1069.17 88.402C1076.92 81.965 1086.61 76.3714 1097.75 71.8993C1104.67 72.9924 1111.31 74.5606 1117.55 76.5708C1108.02 83.9389 1099.95 91.8918 1093.51 100.273C1086.07 95.8827 1077.92 91.909 1069.17 88.402ZM867.548 426.711C864.879 427.844 862.16 428.909 859.369 429.895C849.258 430.021 839.19 429.461 829.372 428.226C833.581 425.856 837.54 423.342 841.228 420.699C849.766 423.013 858.556 425.021 867.548 426.711ZM871.897 427.49C874.107 427.859 876.269 428.201 878.43 428.516C874.664 429.007 870.856 429.367 867.028 429.594C868.668 428.924 870.306 428.214 871.897 427.477L871.897 427.49ZM875.382 425.858C940.23 394.342 965.16 317.349 989.388 242.575C1009.15 181.417 1028.2 122.684 1067.04 90.1911C1076.03 93.775 1084.36 97.865 1091.93 102.404C1065.81 136.41 1050.3 184.339 1034.27 233.852C1006.11 320.822 976.985 410.741 885.973 427.398C882.507 426.938 878.969 426.438 875.382 425.858ZM1181.2 70.823C1171.76 76.9799 1163.67 83.777 1157.12 91.0541C1146.82 85.3071 1135.47 80.2301 1123.24 75.9091C1129.29 71.5777 1136.31 67.7236 1144.1 64.4519C1157.08 65.2241 1169.62 67.3851 1181.1 70.8254L1181.2 70.823ZM1149.31 62.4764C1155.9 60.1295 1163.03 58.3524 1170.47 57.2036C1184.38 55.1936 1198.83 55.1416 1212.58 57.0522C1201.97 59.9813 1192.35 64.0244 1184.23 68.9702C1173.34 65.6965 1161.54 63.5024 1149.31 62.4764ZM1121.79 65.5705C1127.17 64.7494 1132.69 64.331 1138.21 64.3259C1131.49 67.4312 1125.39 70.9593 1120.01 74.8416C1114.35 73.0117 1108.36 71.513 1102.16 70.3674C1108.31 68.2629 1114.91 66.6492 1121.77 65.5711L1121.79 65.5705ZM1038.01 80.8707C1047.01 76.6279 1057.42 73.52 1068.54 71.7551C1076.54 70.5334 1084.85 70.3768 1092.86 71.2972C1082.54 75.7536 1073.5 81.1375 1066.12 87.2345C1057.67 83.9831 1048.09 81.8151 1037.99 80.8713L1038.01 80.8707ZM816.754 410.936C851.285 372.496 869.628 315.967 887.551 260.624C914.963 175.983 940.836 96.0278 1019.91 83.7156C1022.71 83.2925 1025.56 83.0243 1028.43 82.9148C976.603 111.768 954.966 178.509 932.344 248.431C910.996 314.385 889.074 382.021 840.028 418.132C832.497 415.969 824.762 413.57 816.825 410.934L816.754 410.936ZM803.639 423.908C807.645 420.418 811.432 416.701 815.073 412.796C822.757 415.392 830.292 417.714 837.679 419.762C833.739 422.557 829.489 425.202 824.958 427.681C817.743 426.663 810.648 425.403 803.71 423.906L803.639 423.908ZM785.822 437.175C791.543 433.578 796.801 429.745 801.554 425.71C808.14 427.14 814.86 428.368 821.688 429.389C815.005 432.807 807.64 435.746 799.759 438.139C795.105 437.955 790.477 437.632 785.893 437.174L785.822 437.175ZM793.132 439.945C790.161 440.69 787.129 441.345 784.048 441.908C781.038 442.458 777.985 442.918 774.902 443.285C777.589 441.933 780.227 440.514 782.768 438.988C786.351 439.404 789.79 439.714 793.203 439.943L793.132 439.945ZM852.798 432.055C847.845 433.535 842.69 434.767 837.392 435.735C827.516 437.512 817.258 438.378 807.004 438.299C813.846 435.927 820.257 433.151 826.128 430.016C834.86 431.191 843.791 431.874 852.798 432.055ZM1090.75 232.918C1062.59 319.887 1033.46 409.807 942.454 426.463C926.431 429.217 909.625 429.787 893.374 428.129C981.629 408.151 1010.27 319.748 1037.97 234.156C1053.85 185.125 1069.22 137.691 1094.69 104.016C1107.65 112.043 1119.62 120.59 1130.52 129.597C1114.45 159.701 1102.74 195.862 1090.75 232.918Z" fill="#FCD551" fill-opacity="0.3"/>
</svg>
