<svg width="41" height="13" viewBox="0 0 41 13" fill="none" xmlns="http://www.w3.org/2000/svg">
<path fill-rule="evenodd" clip-rule="evenodd" d="M5.05326 3.49488L4.25909 1.89184L3.46978 3.49488H5.05326ZM22.5277 2.85878C22.3708 2.9329 22.1821 2.94099 21.9548 2.94099H20.5461V2.04574H21.9734C22.1772 2.04574 22.3888 2.05208 22.5262 2.1142C22.6742 2.17566 22.7683 2.30031 22.7683 2.4716C22.7683 2.64909 22.677 2.78749 22.5277 2.85878ZM32.5697 3.49488L31.7708 1.89184L30.9767 3.49488H32.5697ZM13.8506 5.23335H12.6625L12.6555 2.08092L10.9769 5.23335H9.9595L8.27195 2.07391V5.23335H5.91423L5.47053 4.33487H3.05656L2.60865 5.23335H1.34874L3.42147 1.20292H5.14583L7.11627 5.02137V1.20292H9.01068L10.5256 3.93947L11.9202 1.20292H13.8506V5.23335ZM18.5842 5.23335H14.7122V1.20292H18.5839V2.04574H15.8742V2.76916H18.5177V3.5977L15.8742 3.5942V4.39915H18.584L18.5842 5.23335ZM24.0447 2.29169C24.0447 2.92886 23.5292 3.26564 23.2306 3.36496C23.4835 3.44596 23.6984 3.58504 23.7993 3.70565C23.963 3.90214 23.9956 4.08609 23.9956 4.44053V5.23335H22.8263L22.8227 4.72663C22.8227 4.48702 22.8503 4.13771 22.6347 3.94472C22.4654 3.80053 22.2104 3.77061 21.7917 3.77061H20.5462V5.23335H19.3879V1.20292H22.0563C22.6452 1.20292 23.0834 1.21909 23.4593 1.39833C23.8263 1.57635 24.0447 1.83995 24.0447 2.29169ZM24.7186 5.23335H25.901V1.20238H24.7186V5.23335ZM39.6198 5.23335H37.9757L35.778 2.21123L35.7821 5.23335H33.4213L32.9691 4.33487H30.5586L30.1253 5.23335H28.7684C28.2031 5.23335 27.4886 5.12891 27.0885 4.7893C26.6765 4.44511 26.4684 3.98381 26.4684 3.24893C26.4684 2.65138 26.5948 2.10558 27.0925 1.67406C27.4678 1.35237 28.0532 1.20292 28.8529 1.20292H29.973V2.06596H28.8777C28.4541 2.06596 28.213 2.11986 27.982 2.30665C27.7872 2.47672 27.6489 2.7972 27.6489 3.22076C27.6489 3.65336 27.7526 3.9613 27.971 4.16763C28.1451 4.32557 28.4706 4.37328 28.7768 4.37328H29.298L30.9311 1.20292H32.6673L34.6306 5.01571V1.20278H36.3979L38.4347 4.00955V1.20278H39.6198V5.23335ZM1.33496 6.02739H3.31578L3.76222 5.12891H4.76163L5.20662 6.02739H9.10454V5.34144L9.45307 6.02968H11.473L11.82 5.33281V6.02739H21.5054L21.5006 4.5571H21.688C21.8199 4.55953 21.8593 4.57206 21.8593 4.75305V6.02739H26.8652V5.68563C27.2695 5.86594 27.8992 6.02739 28.723 6.02739H30.8316L31.2814 5.12891H32.2823L32.7281 6.02739H36.7849V5.17541L37.4007 6.02739H40.6497V0.404297H37.4332V1.07017L36.9841 0.404432H33.6774V1.07017L33.264 0.404432H28.8012C28.0533 0.404432 27.3947 0.489873 26.8654 0.732316V0.404297H23.7892V0.732316C23.4472 0.483 22.9874 0.404297 22.4781 0.404297H11.2257L10.4676 1.85842L9.69624 0.404297H6.15285V1.07017L5.75957 0.404432H2.73786L0.0849609 6.02739H1.33496Z" fill="#00A9DE"/>
<path fill-rule="evenodd" clip-rule="evenodd" d="M40.6984 9.35097C40.4078 8.88567 40.3357 9.04128 39.7018 8.70005C39.4605 8.5701 37.776 8.62822 37.776 8.62822C37.5653 8.62822 37.4249 8.63509 37.3116 8.70005C37.19 8.76433 37.1388 8.865 37.1388 8.99303C37.1388 9.14249 37.2425 9.24585 37.3965 9.29073C37.5128 9.32631 37.6475 9.33547 37.8451 9.3379L38.4658 9.35097C39.0988 9.36593 39.5254 9.45555 39.7844 9.67441C39.828 9.70675 39.859 9.74516 39.8922 9.77616C39.8922 9.77616 40.1102 10.2529 40.1006 10.5753C40.0919 10.8646 39.8922 11.2866 39.8922 11.2866V12.337C39.8922 12.337 40.1576 12.2318 40.384 11.9697C40.723 11.5772 40.8663 11.2351 40.9006 10.7176C40.931 10.2593 40.9418 9.7406 40.6984 9.35097ZM39.8922 11.2866C39.6075 11.6303 39.0595 11.8032 38.3159 11.8032H36.0765V10.9368H38.3089C38.5266 10.9368 38.6829 10.9121 38.779 10.8368C38.8568 10.7776 38.9165 10.6862 38.9165 10.5753C38.9165 10.4565 38.857 10.3623 38.7761 10.3082C38.6856 10.2445 38.566 10.2186 38.3656 10.2163C37.2779 10.1881 35.9197 10.2445 35.9197 8.96945C35.9197 8.38524 36.3683 7.7699 37.5805 7.7699H39.5558V8.70005H39.7018L40.5703 9.16758V6.96777H37.7451C37.0968 6.96777 36.6275 7.09526 36.2924 7.29876V6.96777H33.118C32.6154 6.96777 32.0205 7.07289 31.7344 7.29876L31.7386 6.96777H26.0706V7.29876C25.6193 7.02815 24.8605 6.96777 24.5046 6.96777H20.7717V7.29876C20.413 7.01036 19.6238 6.96777 19.1378 6.96777H14.9538L13.998 7.83189L13.1015 6.96777H6.85156V12.5942H12.9846L13.9716 11.7199L14.9011 12.5944L18.676 12.5967V11.2734H19.05C19.5483 11.2792 20.144 11.2642 20.6651 11.0769V12.5944H23.7815V11.1276H23.9314C24.1235 11.1276 24.1428 11.1368 24.1428 11.2947V12.5944H33.6127C34.2098 12.5944 34.8373 12.4663 35.1884 12.2364V12.5944H38.1928C38.8182 12.5944 39.4258 12.5225 39.8922 12.337V11.2866ZM35.2666 9.67454C35.4932 9.86995 35.6135 10.1163 35.6135 10.5294C35.6135 11.3993 34.9604 11.8032 33.7938 11.8032H31.533V10.9368H33.7834C34.006 10.9368 34.16 10.9121 34.261 10.8368C34.3037 10.8032 34.3376 10.7626 34.3606 10.7176C34.3836 10.6726 34.3951 10.6242 34.3944 10.5753C34.3944 10.4565 34.3322 10.3623 34.2527 10.3082C34.1636 10.2445 34.0425 10.2186 33.8415 10.2163C32.7544 10.1881 31.4004 10.2445 31.4004 8.96945C31.4004 8.38524 31.842 7.7699 33.0528 7.7699H35.3799V8.62822H33.2567C33.0432 8.62822 32.9043 8.63509 32.7883 8.70005C32.6625 8.76433 32.6154 8.865 32.6154 8.99303C32.6154 9.14249 32.7232 9.24585 32.8704 9.29073C32.9893 9.32631 33.1178 9.33547 33.3175 9.3379L33.9423 9.35097C34.5755 9.36593 35.0033 9.45568 35.2666 9.67454ZM24.8063 9.42738C24.6543 9.5015 24.46 9.50905 24.2368 9.50905H22.8276V8.60585H24.2555C24.46 8.60585 24.6701 8.60922 24.8063 8.67539C24.9571 8.74318 25.0469 8.8673 25.0469 9.04128C25.0469 9.21203 24.9571 9.35097 24.8063 9.42738ZM25.5071 9.92898C25.7649 10.0066 25.9756 10.1491 26.0745 10.2668C26.2377 10.4645 26.2646 10.6482 26.2659 11.0028V11.8033H25.1049V11.2993C25.1049 11.0545 25.1333 10.6966 24.9162 10.5105C24.7489 10.3623 24.4899 10.3295 24.0682 10.3295H22.8276V11.8032H21.6645V7.7699H24.3385C24.9272 7.7699 25.3551 7.78998 25.7345 7.96059C26.1001 8.1428 26.3269 8.39845 26.3269 8.85746C26.3269 9.49813 25.8127 9.82669 25.5071 9.92898ZM26.9716 7.7699H30.842V8.60585H28.1266V9.33547H30.7742V10.1589H28.1265V10.9603L30.842 10.9649V11.8032H26.9716V7.7699ZM19.1536 9.62967H17.6524V8.60585H19.166C19.5843 8.60585 19.8738 8.74426 19.8738 9.0999C19.8738 9.4476 19.5981 9.62967 19.1536 9.62967ZM16.4982 11.4371L14.7223 9.79462L16.4985 8.20304L16.4982 11.4371ZM11.9037 10.9603H9.05414V10.1589H11.5984V9.33547H9.05414V8.60585H11.9596L13.2252 9.77845L11.9037 10.9603ZM21.1172 9.0999C21.1172 10.2163 20.115 10.4496 19.0989 10.4496H17.6524V11.8032H15.4028L13.975 10.469L12.4918 11.8032H7.90203V7.7699H12.563L13.9889 9.09074L15.4623 7.7699H19.166C20.0867 7.7699 21.1172 7.98054 21.1172 9.0999Z" fill="#00A9DE"/>
</svg>
