<svg width="40" height="7" viewBox="0 0 40 7" fill="none" xmlns="http://www.w3.org/2000/svg">
<g clip-path="url(#clip0_6022_8792)">
<path d="M21.1213 0.0292969C19.2477 0.0292969 17.7275 1.55424 17.7275 3.43626C17.7275 5.43728 19.1817 6.933 21.1213 6.933C23.0125 6.933 24.5058 5.41742 24.5058 3.47557C24.5058 1.5452 23.0225 0.0292969 21.1213 0.0292969V0.0292969Z" fill="url(#paint0_linear_6022_8792)"/>
<path d="M1.85473 0.154406H0.0302734V6.78438H1.8452C2.80816 6.78438 3.50457 6.54671 4.11551 6.01943C4.84035 5.39309 5.27019 4.44866 5.27019 3.47257C5.27019 1.51517 3.86668 0.154406 1.85473 0.154406V0.154406ZM3.30566 5.13393C2.9134 5.50265 2.40832 5.66202 1.60566 5.66202H1.27223V1.27709H1.60566C2.40832 1.27709 2.89402 1.42637 3.30566 1.81365C3.73496 2.21135 3.99098 2.82718 3.99098 3.46313C3.99098 4.10045 3.73496 4.73778 3.30566 5.13393ZM5.84316 6.78438H7.08316V0.154406H5.84332V6.78438H5.84316ZM10.1188 2.6976C9.37355 2.40995 9.15426 2.22022 9.15426 1.86363C9.15426 1.44574 9.54473 1.12789 10.08 1.12789C10.4521 1.12789 10.7574 1.28686 11.0828 1.66348L11.7308 0.780092C11.1964 0.291964 10.5573 0.0437898 9.86004 0.0437898C8.73519 0.0437898 7.87574 0.859371 7.87574 1.94193C7.87574 2.8573 8.27621 3.3241 9.44074 3.76266C9.92762 3.94067 10.1751 4.05943 10.2995 4.14058C10.5475 4.30964 10.6721 4.54739 10.6721 4.82552C10.6721 5.36322 10.2614 5.76027 9.70723 5.76027C9.11551 5.76027 8.63894 5.45243 8.35254 4.87591L7.55191 5.68205C8.12332 6.55566 8.81051 6.94465 9.75613 6.94465C11.0443 6.94465 11.9502 6.04873 11.9502 4.76667C11.9502 3.71268 11.5314 3.23514 10.1188 2.6976V2.6976ZM12.3413 3.47265C12.3413 5.42329 13.8113 6.93399 15.7011 6.93399C16.2354 6.93399 16.6934 6.82394 17.257 6.54663V5.02478C16.7601 5.54229 16.3211 5.7505 15.7578 5.7505C14.5081 5.7505 13.62 4.80582 13.62 3.46313C13.62 2.19124 14.5358 1.18699 15.7011 1.18699C16.2918 1.18699 16.7411 1.40553 17.257 1.93241V0.41072C16.7131 0.123394 16.2639 0.00488281 15.7295 0.00488281C13.8493 0.00488281 12.3413 1.5461 12.3413 3.47265V3.47265ZM27.3141 4.60795L25.6154 0.154406H24.2603L26.9618 6.95377H27.6293L30.3779 0.154325H29.0328L27.3141 4.60787V4.60795ZM30.9422 6.78446H34.4629V5.66202H32.1825V3.87124H34.3757V2.74864H32.1825V1.27701H34.4629V0.154487H30.9421V6.78446H30.9422ZM39.3761 2.11107C39.3761 0.869057 38.5566 0.154406 37.1243 0.154406H35.2824V6.78438H36.5242V4.11974H36.6867L38.4035 6.78438H39.9303L37.9251 3.99171C38.8617 3.79213 39.3761 3.12574 39.3761 2.11107V2.11107ZM36.8853 3.206H36.5242V1.197H36.9052C37.6798 1.197 38.0995 1.53601 38.0995 2.18123C38.0995 2.8468 37.6798 3.206 36.8853 3.206V3.206Z" fill="#0B1015"/>
</g>
<defs>
<linearGradient id="paint0_linear_6022_8792" x1="19.0435" y1="0.65498" x2="23.8219" y2="5.49914" gradientUnits="userSpaceOnUse">
<stop stop-color="#F34F26"/>
<stop offset="1" stop-color="#F69E35"/>
</linearGradient>
<clipPath id="clip0_6022_8792">
<rect width="40" height="7" fill="white"/>
</clipPath>
</defs>
</svg>
