<svg width="55" height="35" viewBox="0 0 55 35" fill="none" xmlns="http://www.w3.org/2000/svg">
<rect width="55" height="35" rx="6" fill="white"/>
<path fill-rule="evenodd" clip-rule="evenodd" d="M12.0533 14.4949L11.2591 12.8918L10.4698 14.4949H12.0533ZM29.5277 13.8588C29.3708 13.9329 29.1821 13.941 28.9548 13.941H27.5461V13.0457H28.9734C29.1772 13.0457 29.3888 13.0521 29.5262 13.1142C29.6742 13.1757 29.7683 13.3003 29.7683 13.4716C29.7683 13.6491 29.677 13.7875 29.5277 13.8588ZM39.5697 14.4949L38.7708 12.8918L37.9767 14.4949H39.5697ZM20.8506 16.2334H19.6625L19.6555 13.0809L17.9769 16.2334H16.9595L15.2719 13.0739V16.2334H12.9142L12.4705 15.3349H10.0566L9.60865 16.2334H8.34874L10.4215 12.2029H12.1458L14.1163 16.0214V12.2029H16.0107L17.5256 14.9395L18.9202 12.2029H20.8506V16.2334ZM25.5842 16.2334H21.7122V12.2029H25.5839V13.0457H22.8742V13.7692H25.5177V14.5977L22.8742 14.5942V15.3992H25.584L25.5842 16.2334ZM31.0447 13.2917C31.0447 13.9289 30.5292 14.2656 30.2306 14.365C30.4835 14.446 30.6984 14.585 30.7993 14.7057C30.963 14.9021 30.9956 15.0861 30.9956 15.4405V16.2334H29.8263L29.8227 15.7266C29.8227 15.487 29.8503 15.1377 29.6347 14.9447C29.4654 14.8005 29.2104 14.7706 28.7917 14.7706H27.5462V16.2334H26.3879V12.2029H29.0563C29.6452 12.2029 30.0834 12.2191 30.4593 12.3983C30.8263 12.5764 31.0447 12.84 31.0447 13.2917ZM31.7186 16.2334H32.901V12.2024H31.7186V16.2334ZM46.6198 16.2334H44.9757L42.778 13.2112L42.7821 16.2334H40.4213L39.9691 15.3349H37.5586L37.1253 16.2334H35.7684C35.2031 16.2334 34.4886 16.1289 34.0885 15.7893C33.6765 15.4451 33.4684 14.9838 33.4684 14.2489C33.4684 13.6514 33.5948 13.1056 34.0925 12.6741C34.4678 12.3524 35.0532 12.2029 35.8529 12.2029H36.973V13.066H35.8777C35.4541 13.066 35.213 13.1199 34.982 13.3066C34.7872 13.4767 34.6489 13.7972 34.6489 14.2208C34.6489 14.6534 34.7526 14.9613 34.971 15.1676C35.1451 15.3256 35.4706 15.3733 35.7768 15.3733H36.298L37.9311 12.2029H39.6673L41.6306 16.0157V12.2028H43.3979L45.4347 15.0095V12.2028H46.6198V16.2334ZM8.33496 17.0274H10.3158L10.7622 16.1289H11.7616L12.2066 17.0274H16.1045V16.3414L16.4531 17.0297H18.473L18.82 16.3328V17.0274H28.5054L28.5006 15.5571H28.688C28.8199 15.5595 28.8593 15.5721 28.8593 15.753V17.0274H33.8652V16.6856C34.2695 16.8659 34.8992 17.0274 35.723 17.0274H37.8316L38.2814 16.1289H39.2823L39.7281 17.0274H43.7849V16.1754L44.4007 17.0274H47.6497V11.4043H44.4332V12.0702L43.9841 11.4044H40.6774V12.0702L40.264 11.4044H35.8012C35.0533 11.4044 34.3947 11.4899 33.8654 11.7323V11.4043H30.7892V11.7323C30.4472 11.483 29.9874 11.4043 29.4781 11.4043H18.2257L17.4676 12.8584L16.6962 11.4043H13.1529V12.0702L12.7596 11.4044H9.73786L7.08496 17.0274H8.33496Z" fill="#00A9DE"/>
<path fill-rule="evenodd" clip-rule="evenodd" d="M47.6984 20.351C47.4078 19.8857 47.3357 20.0413 46.7018 19.7001C46.4605 19.5701 44.776 19.6282 44.776 19.6282C44.5653 19.6282 44.4249 19.6351 44.3116 19.7001C44.19 19.7643 44.1388 19.865 44.1388 19.993C44.1388 20.1425 44.2425 20.2459 44.3965 20.2907C44.5128 20.3263 44.6475 20.3355 44.8451 20.3379L45.4658 20.351C46.0988 20.3659 46.5254 20.4555 46.7844 20.6744C46.828 20.7068 46.859 20.7452 46.8922 20.7762C46.8922 20.7762 47.1102 21.2529 47.1006 21.5753C47.0919 21.8646 46.8922 22.2866 46.8922 22.2866V23.337C46.8922 23.337 47.1576 23.2318 47.384 22.9697C47.723 22.5772 47.8663 22.2351 47.9006 21.7176C47.931 21.2593 47.9418 20.7406 47.6984 20.351ZM46.8922 22.2866C46.6075 22.6303 46.0595 22.8032 45.3159 22.8032H43.0765V21.9368H45.3089C45.5266 21.9368 45.6829 21.9121 45.779 21.8368C45.8568 21.7776 45.9165 21.6862 45.9165 21.5753C45.9165 21.4565 45.857 21.3623 45.7761 21.3082C45.6856 21.2445 45.566 21.2186 45.3656 21.2163C44.2779 21.1881 42.9197 21.2445 42.9197 19.9694C42.9197 19.3852 43.3683 18.7699 44.5805 18.7699H46.5558V19.7001H46.7018L47.5703 20.1676V17.9678H44.7451C44.0968 17.9678 43.6275 18.0953 43.2924 18.2988V17.9678H40.118C39.6154 17.9678 39.0205 18.0729 38.7344 18.2988L38.7386 17.9678H33.0706V18.2988C32.6193 18.0281 31.8605 17.9678 31.5046 17.9678H27.7717V18.2988C27.413 18.0104 26.6238 17.9678 26.1378 17.9678H21.9538L20.998 18.8319L20.1015 17.9678H13.8516V23.5942H19.9846L20.9716 22.7199L21.9011 23.5944L25.676 23.5967V22.2734H26.05C26.5483 22.2792 27.144 22.2642 27.6651 22.0769V23.5944H30.7815V22.1276H30.9314C31.1235 22.1276 31.1428 22.1368 31.1428 22.2947V23.5944H40.6127C41.2098 23.5944 41.8373 23.4663 42.1884 23.2364V23.5944H45.1928C45.8182 23.5944 46.4258 23.5225 46.8922 23.337V22.2866ZM42.2666 20.6745C42.4932 20.87 42.6135 21.1163 42.6135 21.5294C42.6135 22.3993 41.9604 22.8032 40.7938 22.8032H38.533V21.9368H40.7834C41.006 21.9368 41.16 21.9121 41.261 21.8368C41.3037 21.8032 41.3376 21.7626 41.3606 21.7176C41.3836 21.6726 41.3951 21.6242 41.3944 21.5753C41.3944 21.4565 41.3322 21.3623 41.2527 21.3082C41.1636 21.2445 41.0425 21.2186 40.8415 21.2163C39.7544 21.1881 38.4004 21.2445 38.4004 19.9694C38.4004 19.3852 38.842 18.7699 40.0528 18.7699H42.3799V19.6282H40.2567C40.0432 19.6282 39.9043 19.6351 39.7883 19.7001C39.6625 19.7643 39.6154 19.865 39.6154 19.993C39.6154 20.1425 39.7232 20.2459 39.8704 20.2907C39.9893 20.3263 40.1178 20.3355 40.3175 20.3379L40.9423 20.351C41.5755 20.3659 42.0033 20.4557 42.2666 20.6745ZM31.8063 20.4274C31.6543 20.5015 31.46 20.5091 31.2368 20.5091H29.8276V19.6059H31.2555C31.46 19.6059 31.6701 19.6092 31.8063 19.6754C31.9571 19.7432 32.0469 19.8673 32.0469 20.0413C32.0469 20.212 31.9571 20.351 31.8063 20.4274ZM32.5071 20.929C32.7649 21.0066 32.9756 21.1491 33.0745 21.2668C33.2377 21.4645 33.2646 21.6482 33.2659 22.0028V22.8033H32.1049V22.2993C32.1049 22.0545 32.1333 21.6966 31.9162 21.5105C31.7489 21.3623 31.4899 21.3295 31.0682 21.3295H29.8276V22.8032H28.6645V18.7699H31.3385C31.9272 18.7699 32.3551 18.79 32.7345 18.9606C33.1001 19.1428 33.3269 19.3984 33.3269 19.8575C33.3269 20.4981 32.8127 20.8267 32.5071 20.929ZM33.9716 18.7699H37.842V19.6059H35.1266V20.3355H37.7742V21.1589H35.1265V21.9603L37.842 21.9649V22.8032H33.9716V18.7699ZM26.1536 20.6297H24.6524V19.6059H26.166C26.5843 19.6059 26.8738 19.7443 26.8738 20.0999C26.8738 20.4476 26.5981 20.6297 26.1536 20.6297ZM23.4982 22.4371L21.7223 20.7946L23.4985 19.203L23.4982 22.4371ZM18.9037 21.9603H16.0541V21.1589H18.5984V20.3355H16.0541V19.6059H18.9596L20.2252 20.7784L18.9037 21.9603ZM28.1172 20.0999C28.1172 21.2163 27.115 21.4496 26.0989 21.4496H24.6524V22.8032H22.4028L20.975 21.469L19.4918 22.8032H14.902V18.7699H19.563L20.9889 20.0907L22.4623 18.7699H26.166C27.0867 18.7699 28.1172 18.9805 28.1172 20.0999Z" fill="#00A9DE"/>
</svg>
