<svg width="54" height="35" viewBox="0 0 54 35" fill="none" xmlns="http://www.w3.org/2000/svg">
<rect width="54" height="35" rx="6" fill="white"/>
<g clip-path="url(#clip0_6022_8791)">
<path d="M28.1213 14.0293C26.2477 14.0293 24.7275 15.5542 24.7275 17.4363C24.7275 19.4373 26.1817 20.933 28.1213 20.933C30.0125 20.933 31.5058 19.4174 31.5058 17.4756C31.5058 15.5452 30.0225 14.0293 28.1213 14.0293Z" fill="url(#paint0_linear_6022_8791)"/>
<path d="M8.85473 14.1544H7.03027V20.7844H8.8452C9.80816 20.7844 10.5046 20.5467 11.1155 20.0194C11.8404 19.3931 12.2702 18.4487 12.2702 17.4726C12.2702 15.5152 10.8667 14.1544 8.85473 14.1544ZM10.3057 19.1339C9.9134 19.5026 9.40832 19.662 8.60566 19.662H8.27223V15.2771H8.60566C9.40832 15.2771 9.89402 15.4264 10.3057 15.8137C10.735 16.2113 10.991 16.8272 10.991 17.4631C10.991 18.1005 10.735 18.7378 10.3057 19.1339ZM12.8432 20.7844H14.0832V14.1544H12.8433V20.7844H12.8432ZM17.1188 16.6976C16.3736 16.41 16.1543 16.2202 16.1543 15.8636C16.1543 15.4457 16.5447 15.1279 17.08 15.1279C17.4521 15.1279 17.7574 15.2869 18.0828 15.6635L18.7308 14.7801C18.1964 14.292 17.5573 14.0438 16.86 14.0438C15.7352 14.0438 14.8757 14.8594 14.8757 15.9419C14.8757 16.8573 15.2762 17.3241 16.4407 17.7627C16.9276 17.9407 17.1751 18.0594 17.2995 18.1406C17.5475 18.3096 17.6721 18.5474 17.6721 18.8255C17.6721 19.3632 17.2614 19.7603 16.7072 19.7603C16.1155 19.7603 15.6389 19.4524 15.3525 18.8759L14.5519 19.682C15.1233 20.5557 15.8105 20.9446 16.7561 20.9446C18.0443 20.9446 18.9502 20.0487 18.9502 18.7667C18.9502 17.7127 18.5314 17.2351 17.1188 16.6976ZM19.3413 17.4727C19.3413 19.4233 20.8113 20.934 22.7011 20.934C23.2354 20.934 23.6934 20.8239 24.257 20.5466V19.0248C23.7601 19.5423 23.3211 19.7505 22.7578 19.7505C21.5081 19.7505 20.62 18.8058 20.62 17.4631C20.62 16.1912 21.5358 15.187 22.7011 15.187C23.2918 15.187 23.7411 15.4055 24.257 15.9324V14.4107C23.7131 14.1234 23.2639 14.0049 22.7295 14.0049C20.8493 14.0049 19.3413 15.5461 19.3413 17.4727ZM34.3141 18.608L32.6154 14.1544H31.2603L33.9618 20.9538H34.6293L37.3779 14.1543H36.0328L34.3141 18.6079V18.608ZM37.9422 20.7845H41.4629V19.662H39.1825V17.8712H41.3757V16.7486H39.1825V15.277H41.4629V14.1545H37.9421V20.7845H37.9422ZM46.3761 16.1111C46.3761 14.8691 45.5566 14.1544 44.1243 14.1544H42.2824V20.7844H43.5242V18.1197H43.6867L45.4035 20.7844H46.9303L44.9251 17.9917C45.8617 17.7921 46.3761 17.1257 46.3761 16.1111ZM43.8853 17.206H43.5242V15.197H43.9052C44.6798 15.197 45.0995 15.536 45.0995 16.1812C45.0995 16.8468 44.6798 17.206 43.8853 17.206Z" fill="#0B1015"/>
</g>
<defs>
<linearGradient id="paint0_linear_6022_8791" x1="26.0435" y1="14.655" x2="30.8219" y2="19.4991" gradientUnits="userSpaceOnUse">
<stop stop-color="#F34F26"/>
<stop offset="1" stop-color="#F69E35"/>
</linearGradient>
<clipPath id="clip0_6022_8791">
<rect width="40" height="7" fill="white" transform="translate(7 14)"/>
</clipPath>
</defs>
</svg>
