<svg width="53" height="35" viewBox="0 0 53 35" fill="none" xmlns="http://www.w3.org/2000/svg">
<rect width="53" height="35" rx="6" fill="white"/>
<g clip-path="url(#clip0_6022_8776)">
<path d="M19.8333 27.125C24.988 27.125 29.1667 22.8157 29.1667 17.5C29.1667 12.1843 24.988 7.875 19.8333 7.875C14.6787 7.875 10.5 12.1843 10.5 17.5C10.5 22.8157 14.6787 27.125 19.8333 27.125Z" fill="#EA001B"/>
<path d="M33.1663 27.125C38.321 27.125 42.4997 22.8157 42.4997 17.5C42.4997 12.1843 38.321 7.875 33.1663 7.875C28.0117 7.875 23.833 12.1843 23.833 17.5C23.833 22.8157 28.0117 27.125 33.1663 27.125Z" fill="#FFA200" fill-opacity="0.8"/>
</g>
<defs>
<clipPath id="clip0_6022_8776">
<rect width="32" height="33" fill="white" transform="translate(10.5 1)"/>
</clipPath>
</defs>
</svg>
