<svg width="54" height="35" viewBox="0 0 54 35" fill="none" xmlns="http://www.w3.org/2000/svg">
<rect width="54" height="35" rx="6" fill="white"/>
<path d="M27.7386 15.165C27.714 16.9687 29.4624 17.9752 30.7795 18.5736C32.1326 19.1876 32.5871 19.5814 32.5818 20.1305C32.5717 20.9708 31.5024 21.3417 30.5018 21.3561C28.7561 21.3813 27.7411 20.9166 26.9342 20.5651L26.3053 23.3091C27.1149 23.6569 28.614 23.9603 30.1686 23.9736C33.8177 23.9736 36.205 22.294 36.218 19.6897C36.2322 16.3846 31.3153 16.2017 31.3489 14.7244C31.3605 14.2764 31.8189 13.7984 32.8233 13.6769C33.3205 13.6155 34.693 13.5685 36.249 14.2366L36.8598 11.5818C36.0229 11.2977 34.9474 11.0256 33.6084 11.0256C30.1738 11.0256 27.758 12.7282 27.7386 15.165ZM42.7283 11.2543C42.0619 11.2543 41.5004 11.6167 41.2498 12.1729L36.0372 23.7786H39.6837L40.4093 21.9087H44.8652L45.2861 23.7786H48.5L45.6954 11.2543H42.7283ZM43.2384 14.6376L44.2907 19.3406H41.4087L43.2384 14.6376ZM23.3175 11.2545L20.4432 23.7785H23.9179L26.7909 11.2542H23.3175V11.2545ZM18.1771 11.2542L14.5604 19.7789L13.0974 12.5307C12.9257 11.7215 12.2478 11.2543 11.495 11.2543H5.58281L5.5 11.618C6.71374 11.8636 8.09277 12.2597 8.92824 12.6835C9.43954 12.9424 9.58534 13.1688 9.7533 13.784L12.5243 23.7786H16.1962L21.8259 11.2543H18.1771" fill="url(#paint0_linear_6022_8774)"/>
<defs>
<linearGradient id="paint0_linear_6022_8774" x1="25.2688" y1="24.2334" x2="25.6183" y2="10.9342" gradientUnits="userSpaceOnUse">
<stop stop-color="#222357"/>
<stop offset="1" stop-color="#254AA5"/>
</linearGradient>
</defs>
</svg>
