<svg width="44" height="13" viewBox="0 0 44 13" fill="none" xmlns="http://www.w3.org/2000/svg">
<path d="M22.7386 4.16496C22.714 5.96867 24.4624 6.97515 25.7795 7.57362C27.1326 8.1876 27.5871 8.58136 27.5818 9.13049C27.5717 9.97079 26.5024 10.3417 25.5018 10.3561C23.7561 10.3813 22.7411 9.9166 21.9342 9.56513L21.3053 12.3091C22.1149 12.6569 23.614 12.9603 25.1686 12.9736C28.8177 12.9736 31.205 11.294 31.218 8.68974C31.2322 5.38461 26.3153 5.20167 26.3489 3.72437C26.3605 3.27642 26.8189 2.79839 27.8233 2.67685C28.3205 2.61545 29.693 2.56846 31.249 3.23663L31.8598 0.581814C31.0229 0.297693 29.9474 0.0256328 28.6084 0.0256328C25.1738 0.0256328 22.758 1.72816 22.7386 4.16496V4.16496ZM37.7283 0.254307C37.0619 0.254307 36.5004 0.616741 36.2498 1.17292L31.0372 12.7786H34.6837L35.4093 10.9087H39.8652L40.2861 12.7786H43.5L40.6954 0.254307H37.7283V0.254307ZM38.2384 3.6376L39.2907 8.34062H36.4087L38.2384 3.6376V3.6376ZM18.3175 0.254464L15.4432 12.7785H18.9179L21.7909 0.254151H18.3175V0.254464ZM13.1771 0.254151L9.5604 8.77886L8.09739 1.53066C7.92573 0.721525 7.24781 0.254307 6.49497 0.254307H0.582809L0.5 0.617994C1.71374 0.863584 3.09277 1.25969 3.92824 1.68352C4.43954 1.94243 4.58534 2.16875 4.7533 2.78398L7.52429 12.7786H11.1963L16.8259 0.254307H13.1771" fill="url(#paint0_linear_6022_8775)"/>
<defs>
<linearGradient id="paint0_linear_6022_8775" x1="20.2688" y1="13.2334" x2="20.6183" y2="-0.0657934" gradientUnits="userSpaceOnUse">
<stop stop-color="#222357"/>
<stop offset="1" stop-color="#254AA5"/>
</linearGradient>
</defs>
</svg>
