<svg width="110" height="22" viewBox="0 0 110 22" fill="none" xmlns="http://www.w3.org/2000/svg">
<path d="M9.54488 3.07953C9.83592 2.14117 11.1641 2.14117 11.4551 3.07952L12.6391 6.89704C12.7689 7.31555 13.1561 7.60081 13.5942 7.60081H17.5212C18.4786 7.60081 18.8887 8.81667 18.1268 9.39654L14.8711 11.8746C14.5368 12.1291 14.3971 12.5653 14.5216 12.9666L15.7461 16.9147C16.0344 17.8443 14.9598 18.5961 14.1853 18.0067L11.1057 15.6626C10.7478 15.3902 10.2522 15.3902 9.89434 15.6626L6.81466 18.0067C6.04023 18.5961 4.96558 17.8443 5.25389 16.9147L6.4784 12.9666C6.60285 12.5653 6.46324 12.1291 6.12894 11.8746L2.87316 9.39654C2.11132 8.81666 2.5214 7.60081 3.47882 7.60081H7.40576C7.84394 7.60081 8.23108 7.31555 8.36088 6.89704L9.54488 3.07953Z" fill="#F2A124"/>
<path d="M31.0489 2.92705C31.3483 2.00574 32.6517 2.00574 32.9511 2.92705L34.2451 6.90983C34.379 7.32185 34.763 7.60081 35.1962 7.60081H39.3839C40.3527 7.60081 40.7554 8.84043 39.9717 9.40983L36.5838 11.8713C36.2333 12.126 36.0866 12.5773 36.2205 12.9894L37.5146 16.9721C37.8139 17.8934 36.7595 18.6596 35.9757 18.0902L32.5878 15.6287C32.2373 15.374 31.7627 15.374 31.4122 15.6287L28.0243 18.0902C27.2405 18.6596 26.1861 17.8934 26.4854 16.9721L27.7795 12.9894C27.9134 12.5773 27.7667 12.126 27.4162 11.8713L24.0283 9.40983C23.2446 8.84043 23.6473 7.60081 24.6161 7.60081H28.8038C29.237 7.60081 29.621 7.32185 29.7549 6.90983L31.0489 2.92705Z" fill="#F2A124"/>
<path d="M53.5531 2.78744C53.8604 1.88296 55.1396 1.88296 55.4469 2.78744L56.8515 6.92245C56.9892 7.32802 57.37 7.60081 57.7983 7.60081H62.2459C63.2254 7.60081 63.6209 8.86303 62.8166 9.42199L59.296 11.8686C58.9299 12.1231 58.7764 12.5892 58.9198 13.0114L60.2824 17.0227C60.5927 17.9363 59.5572 18.7161 58.7649 18.1655L55.0707 15.5982C54.7276 15.3598 54.2724 15.3598 53.9293 15.5982L50.2351 18.1655C49.4428 18.7161 48.4073 17.9363 48.7176 17.0227L50.0802 13.0114C50.2236 12.5892 50.0701 12.1231 49.704 11.8686L46.1834 9.42199C45.3791 8.86303 45.7746 7.60081 46.7541 7.60081H51.2017C51.63 7.60081 52.0108 7.32802 52.1485 6.92245L53.5531 2.78744Z" fill="#F2A124"/>
<path d="M76.5531 2.78744C76.8604 1.88296 78.1396 1.88296 78.4469 2.78744L79.8515 6.92245C79.9892 7.32802 80.37 7.60081 80.7983 7.60081H85.2459C86.2254 7.60081 86.6209 8.86303 85.8166 9.42199L82.296 11.8686C81.9299 12.1231 81.7764 12.5892 81.9198 13.0114L83.2824 17.0227C83.5927 17.9363 82.5572 18.7161 81.7649 18.1655L78.0707 15.5982C77.7276 15.3598 77.2724 15.3598 76.9293 15.5982L73.2351 18.1655C72.4428 18.7161 71.4073 17.9363 71.7176 17.0227L73.0802 13.0114C73.2236 12.5892 73.0701 12.1231 72.704 11.8686L69.1834 9.42199C68.3791 8.86303 68.7746 7.60081 69.7541 7.60081H74.2017C74.63 7.60081 75.0108 7.32802 75.1485 6.92245L76.5531 2.78744Z" fill="#F2A124"/>
<path d="M99.0268 3.93557C99.1808 3.48416 99.8192 3.48417 99.9732 3.93557L101.153 7.39417C101.36 8.00156 101.931 8.40983 102.573 8.40983H106.283C106.774 8.40983 106.971 9.04204 106.568 9.321L103.651 11.3392C103.1 11.7208 102.869 12.4222 103.085 13.057L104.219 16.3799C104.374 16.8363 103.858 17.2269 103.461 16.9525L100.354 14.8022C99.84 14.4469 99.16 14.4469 98.6465 14.8022L95.5389 16.9525C95.1424 17.2269 94.6255 16.8363 94.7812 16.3799L95.9149 13.057C96.1314 12.4222 95.9003 11.7208 95.3487 11.3392L92.432 9.321C92.0289 9.04204 92.2263 8.40983 92.7166 8.40983H96.4272C97.0689 8.40983 97.6396 8.00156 97.8468 7.39417L99.0268 3.93557Z" stroke="#F2A124"/>
</svg>
