<?xml version="1.0" encoding="utf-8"?>
<svg width="16" height="17" viewBox="0 0 16 17" fill="none" xmlns="http://www.w3.org/2000/svg">
<g clip-path="url(#clip0_5068_10802)">
<path fill-rule="evenodd" clip-rule="evenodd" d="M4.80507 4.21396C5.18014 3.83889 5.68885 3.62817 6.21928 3.62817H8.66699C9.03519 3.62817 9.33366 3.92665 9.33366 4.29484C9.33366 4.66303 9.03519 4.96151 8.66699 4.96151H6.21928C6.04247 4.96151 5.8729 5.03175 5.74787 5.15677L5.19559 5.70905C4.82051 6.08413 4.31181 6.29484 3.78137 6.29484H2.66699C2.29881 6.29484 2.00033 6.59332 2.00033 6.96151V13.6282C2.00033 13.9964 2.29881 14.2948 2.66699 14.2948H12.0003C12.3685 14.2948 12.667 13.9964 12.667 13.6282V8.96151C12.667 8.59331 12.9655 8.29484 13.3337 8.29484C13.7019 8.29484 14.0003 8.59331 14.0003 8.96151V13.6282C14.0003 14.7328 13.1049 15.6282 12.0003 15.6282H2.66699C1.56243 15.6282 0.666992 14.7328 0.666992 13.6282V6.96151C0.666992 5.85694 1.56243 4.96151 2.66699 4.96151H3.78137C3.95819 4.96151 4.12775 4.89127 4.25278 4.76625L4.80507 4.21396Z" fill="#3A3A3A"/>
<path fill-rule="evenodd" clip-rule="evenodd" d="M4 10.2946C4 8.4537 5.49239 6.9613 7.33333 6.9613C9.17427 6.9613 10.6667 8.4537 10.6667 10.2946C10.6667 12.1356 9.17427 13.628 7.33333 13.628C5.49239 13.628 4 12.1356 4 10.2946ZM7.33333 8.29464C6.22877 8.29464 5.33333 9.19004 5.33333 10.2946C5.33333 11.3992 6.22877 12.2946 7.33333 12.2946C8.43793 12.2946 9.33333 11.3992 9.33333 10.2946C9.33333 9.19004 8.43793 8.29464 7.33333 8.29464Z" fill="#3A3A3A"/>
<path fill-rule="evenodd" clip-rule="evenodd" d="M10.667 4.29484C10.667 3.92665 10.9655 3.62817 11.3337 3.62817H15.3336C15.7018 3.62817 16.0003 3.92665 16.0003 4.29484C16.0003 4.66303 15.7018 4.96151 15.3336 4.96151H11.3337C10.9655 4.96151 10.667 4.66303 10.667 4.29484Z" fill="#3A3A3A"/>
<path fill-rule="evenodd" clip-rule="evenodd" d="M13.3337 1.62817C13.7019 1.62817 14.0003 1.92665 14.0003 2.29484V6.29484C14.0003 6.66303 13.7019 6.96151 13.3337 6.96151C12.9655 6.96151 12.667 6.66303 12.667 6.29484V2.29484C12.667 1.92665 12.9655 1.62817 13.3337 1.62817Z" fill="#3A3A3A"/>
</g>
<defs>
<clipPath id="clip0_5068_10802">
<rect width="16" height="16" fill="white" transform="translate(0 0.961304)"/>
</clipPath>
</defs>
</svg>
