<svg width="20" height="21" viewBox="0 0 20 21" fill="none" xmlns="http://www.w3.org/2000/svg">
<path d="M18.6038 5.06505C18.3625 4.96495 18.0959 4.94331 17.8417 5.00322C17.5875 5.06312 17.3586 5.20152 17.1875 5.3988L14.375 9.1038V6.5863C14.375 6.08902 14.1775 5.61211 13.8258 5.26048C13.4742 4.90885 12.9973 4.7113 12.5 4.7113H2.5C2.00272 4.7113 1.52581 4.90885 1.17417 5.26048C0.822544 5.61211 0.625 6.08902 0.625 6.5863V15.3363C0.625 15.8336 0.822544 16.3105 1.17417 16.6621C1.52581 17.0138 2.00272 17.2113 2.5 17.2113H12.5C12.9973 17.2113 13.4742 17.0138 13.8258 16.6621C14.1775 16.3105 14.375 15.8336 14.375 15.3363V12.8188L17.1875 16.5238C17.3551 16.7139 17.5766 16.8485 17.8225 16.9099C18.0684 16.9712 18.3271 16.9563 18.5644 16.8673C18.8016 16.7782 19.0062 16.6191 19.151 16.4111C19.2957 16.2031 19.3739 15.956 19.375 15.7026V6.22005C19.3751 5.97285 19.3018 5.73117 19.1645 5.52559C19.0273 5.32 18.8321 5.15973 18.6038 5.06505ZM13.125 15.3363C13.125 15.5021 13.0592 15.661 12.9419 15.7782C12.8247 15.8955 12.6658 15.9613 12.5 15.9613H2.5C2.33424 15.9613 2.17527 15.8955 2.05806 15.7782C1.94085 15.661 1.875 15.5021 1.875 15.3363V6.5863C1.875 6.42054 1.94085 6.26157 2.05806 6.14436C2.17527 6.02715 2.33424 5.9613 2.5 5.9613H12.5C12.6658 5.9613 12.8247 6.02715 12.9419 6.14436C13.0592 6.26157 13.125 6.42054 13.125 6.5863V15.3363ZM18.125 15.6926L14.5344 10.9613L18.125 6.23005V15.6926Z" fill="#3A3A3A"/>
<path d="M9.375 10.3363H8.125V9.0863C8.125 8.92054 8.05915 8.76157 7.94194 8.64436C7.82473 8.52715 7.66576 8.4613 7.5 8.4613C7.33424 8.4613 7.17527 8.52715 7.05806 8.64436C6.94085 8.76157 6.875 8.92054 6.875 9.0863V10.3363H5.625C5.45924 10.3363 5.30027 10.4022 5.18306 10.5194C5.06585 10.6366 5 10.7955 5 10.9613C5 11.1271 5.06585 11.286 5.18306 11.4032C5.30027 11.5205 5.45924 11.5863 5.625 11.5863H6.875V12.8363C6.875 13.0021 6.94085 13.161 7.05806 13.2782C7.17527 13.3955 7.33424 13.4613 7.5 13.4613C7.66576 13.4613 7.82473 13.3955 7.94194 13.2782C8.05915 13.161 8.125 13.0021 8.125 12.8363V11.5863H9.375C9.54076 11.5863 9.69973 11.5205 9.81694 11.4032C9.93415 11.286 10 11.1271 10 10.9613C10 10.7955 9.93415 10.6366 9.81694 10.5194C9.69973 10.4022 9.54076 10.3363 9.375 10.3363Z" fill="#3A3A3A"/>
</svg>
