<svg width="33" height="33" viewBox="0 0 33 33" fill="none" xmlns="http://www.w3.org/2000/svg">
<path d="M30.5 12C30.5 10.6 29.4 9.5 28 9.5H24.45C23.95 5.55 20.6 2.5 16.5 2.5C12.4 2.5 9.05 5.55 8.55 9.5H5C3.6 9.5 2.5 10.6 2.5 12C2.5 13.4 3.6 14.5 5 14.5H5.5H26.4L25.2 25.6C25.15 26.1 24.7 26.5 24.2 26.5H18C17.45 26.5 17 26.95 17 27.5C17 28.05 17.45 28.5 18 28.5H24.2C25.75 28.5 27 27.35 27.2 25.8L28.4 14.45C29.6 14.25 30.5 13.25 30.5 12ZM16.5 4.5C19.45 4.5 21.95 6.65 22.4 9.5H10.6C11.05 6.65 13.55 4.5 16.5 4.5Z" fill="white"/>
<rect x="3.5" y="16.5" width="14" height="14" rx="7" fill="#F2A124"/>
<rect x="5.5" y="24" width="2" height="10" rx="1" transform="rotate(-90 5.5 24)" fill="white"/>
<rect x="9.5" y="18" width="2" height="10" rx="1" fill="white"/>
</svg>
