<svg width="24" height="24" viewBox="0 0 24 24" fill="none" xmlns="http://www.w3.org/2000/svg">
<path d="M22.5 8.625C22.5 7.575 21.675 6.75 20.625 6.75H17.9625C17.5875 3.7875 15.075 1.5 12 1.5C8.925 1.5 6.4125 3.7875 6.0375 6.75H3.375C2.325 6.75 1.5 7.575 1.5 8.625C1.5 9.675 2.325 10.5 3.375 10.5H3.75H19.425L18.525 18.825C18.4875 19.2 18.15 19.5 17.775 19.5H13.125C12.7125 19.5 12.375 19.8375 12.375 20.25C12.375 20.6625 12.7125 21 13.125 21H17.775C18.9375 21 19.875 20.1375 20.025 18.975L20.925 10.4625C21.825 10.3125 22.5 9.5625 22.5 8.625ZM12 3C14.2125 3 16.0875 4.6125 16.425 6.75H7.575C7.9125 4.6125 9.7875 3 12 3Z" fill="#30140C"/>
<rect x="2.25" y="12" width="10.5" height="10.5" rx="5.25" fill="#F2A124"/>
<rect x="3.75" y="17.625" width="1.5" height="7.5" rx="0.75" transform="rotate(-90 3.75 17.625)" fill="white"/>
<rect x="6.75" y="13.125" width="1.5" height="7.5" rx="0.75" fill="white"/>
</svg>
