<svg width="8" height="12" viewBox="0 0 8 12" fill="none" xmlns="http://www.w3.org/2000/svg">
<path d="M1.28951 0.710022C1.19681 0.802536 1.12326 0.912424 1.07308 1.0334C1.0229 1.15437 0.99707 1.28405 0.99707 1.41502C0.99707 1.54599 1.0229 1.67567 1.07308 1.79665C1.12326 1.91762 1.19681 2.02751 1.28951 2.12002L5.16951 6.00002L1.28951 9.88002C1.19693 9.9726 1.12349 10.0825 1.07339 10.2035C1.02328 10.3244 0.997494 10.4541 0.997494 10.585C0.997494 10.716 1.02328 10.8456 1.07339 10.9666C1.12349 11.0875 1.19693 11.1974 1.28951 11.29C1.3821 11.3826 1.49201 11.456 1.61297 11.5061C1.73394 11.5563 1.86358 11.582 1.99451 11.582C2.12545 11.582 2.25509 11.5563 2.37606 11.5061C2.49702 11.456 2.60693 11.3826 2.69951 11.29L7.28951 6.70002C7.38222 6.60751 7.45577 6.49762 7.50595 6.37665C7.55613 6.25567 7.58196 6.12599 7.58196 5.99502C7.58196 5.86405 7.55613 5.73437 7.50595 5.6134C7.45577 5.49242 7.38222 5.38254 7.28951 5.29002L2.69951 0.700022C2.31951 0.320022 1.67951 0.320022 1.28951 0.710022Z" fill="black"/>
</svg>
