<?xml version="1.0" encoding="utf-8"?>
<svg width="13" height="9" viewBox="0 0 13 9" fill="none" xmlns="http://www.w3.org/2000/svg">
<path d="M13 1.09536C13.0002 1.21471 12.9808 1.33273 12.9431 1.44157C12.9055 1.55041 12.8504 1.64757 12.7816 1.72657L6.93143 8.4865C6.81254 8.62399 6.65895 8.69995 6.49982 8.69995C6.34069 8.69995 6.1871 8.62399 6.06821 8.4865L0.21805 1.72657C0.154285 1.65289 0.102308 1.5636 0.0650872 1.46381C0.0278665 1.36402 0.00613064 1.25567 0.00112078 1.14496C-0.00388908 1.03424 0.00792511 0.92333 0.0358888 0.818552C0.0638525 0.713773 0.107418 0.617182 0.164098 0.53429C0.220778 0.451399 0.289463 0.383831 0.36623 0.335446C0.442998 0.287061 0.526344 0.258805 0.611512 0.252293C0.69668 0.245781 0.782 0.261138 0.862602 0.29749C0.943204 0.333841 1.01751 0.390474 1.08127 0.464156L6.49982 6.72554L11.9184 0.464156C12.0119 0.355673 12.1276 0.284712 12.2515 0.25984C12.3754 0.23497 12.5022 0.257249 12.6166 0.323992C12.7309 0.390734 12.828 0.499085 12.896 0.635963C12.9641 0.772842 13.0002 0.932396 13 1.09536Z" fill="#202223"/>
</svg>
