<?xml version="1.0" encoding="utf-8"?>
<svg width="50" height="50" viewBox="0 0 50 50" fill="none" xmlns="http://www.w3.org/2000/svg">
<rect x="50" width="50" height="50" rx="25" transform="rotate(90 50 0)" fill="white"/>
<path d="M36.0208 19.3544C35.8281 19.1612 35.5991 19.008 35.3471 18.9035C35.0951 18.7989 34.8249 18.7451 34.5521 18.7451C34.2792 18.7451 34.009 18.7989 33.757 18.9035C33.505 19.008 33.276 19.1612 33.0833 19.3544L25 27.4377L16.9166 19.3544C16.7238 19.1615 16.4948 19.0085 16.2428 18.9041C15.9908 18.7997 15.7207 18.746 15.4479 18.746C15.1751 18.746 14.905 18.7997 14.653 18.9041C14.401 19.0085 14.172 19.1615 13.9791 19.3544C13.7863 19.5473 13.6333 19.7762 13.5289 20.0282C13.4245 20.2803 13.3708 20.5504 13.3708 20.8231C13.3708 21.0959 13.4245 21.366 13.5289 21.618C13.6333 21.87 13.7863 22.099 13.9791 22.2919L23.5416 31.8544C23.7344 32.0475 23.9633 32.2007 24.2153 32.3053C24.4674 32.4098 24.7375 32.4636 25.0104 32.4636C25.2832 32.4636 25.5534 32.4098 25.8054 32.3053C26.0575 32.2007 26.2864 32.0475 26.4791 31.8544L36.0416 22.2919C36.8333 21.5002 36.8333 20.1669 36.0208 19.3544Z" fill="black"/>
</svg>
