<svg width="50" height="50" viewBox="0 0 50 50" fill="none" xmlns="http://www.w3.org/2000/svg">
<rect y="50" width="50" height="50" rx="25" transform="rotate(-90 0 50)" fill="white"/>
<path d="M13.9792 30.6459C14.1719 30.839 14.4009 30.9922 14.6529 31.0968C14.9049 31.2013 15.1751 31.2551 15.4479 31.2551C15.7208 31.2551 15.991 31.2013 16.243 31.0968C16.495 30.9922 16.724 30.839 16.9167 30.6459L25 22.5625L33.0834 30.6459C33.2762 30.8387 33.5052 30.9917 33.7572 31.0961C34.0092 31.2005 34.2793 31.2542 34.5521 31.2542C34.8249 31.2542 35.095 31.2005 35.347 31.0961C35.599 30.9917 35.828 30.8387 36.0209 30.6459C36.2137 30.453 36.3667 30.224 36.4711 29.972C36.5755 29.72 36.6292 29.4499 36.6292 29.1771C36.6292 28.9043 36.5755 28.6342 36.4711 28.3822C36.3667 28.1302 36.2137 27.9012 36.0209 27.7084L26.4584 18.1459C26.2656 17.9527 26.0367 17.7995 25.7847 17.695C25.5326 17.5904 25.2625 17.5366 24.9896 17.5366C24.7168 17.5366 24.4466 17.5904 24.1946 17.695C23.9425 17.7995 23.7136 17.9527 23.5209 18.1459L13.9584 27.7084C13.1667 28.5 13.1667 29.8334 13.9792 30.6459Z" fill="black"/>
</svg>
