<svg width="21" height="21" viewBox="0 0 21 21" fill="none" xmlns="http://www.w3.org/2000/svg">
<path d="M12.2673 10.4998L20.1336 2.63356C20.3679 2.39918 20.4996 2.08128 20.4996 1.74981C20.4996 1.41834 20.3679 1.10045 20.1336 0.866061C19.8992 0.631676 19.5813 0.5 19.2498 0.5C18.9183 0.5 18.6004 0.631676 18.3661 0.866061L10.4998 8.73231L2.63356 0.866061C2.51751 0.750006 2.37973 0.657945 2.22809 0.595136C2.07646 0.532328 1.91394 0.5 1.74981 0.5C1.58568 0.5 1.42316 0.532328 1.27153 0.595136C1.1199 0.657945 0.982117 0.750006 0.866061 0.866061C0.631676 1.10045 0.5 1.41834 0.5 1.74981C0.5 2.08128 0.631676 2.39918 0.866061 2.63356L8.73231 10.4998L0.866061 18.3661C0.631676 18.6004 0.5 18.9183 0.5 19.2498C0.5 19.5813 0.631676 19.8992 0.866061 20.1336C1.10045 20.3679 1.41834 20.4996 1.74981 20.4996C2.08128 20.4996 2.39918 20.3679 2.63356 20.1336L10.4998 12.2673L18.3661 20.1336C18.4819 20.25 18.6196 20.3425 18.7712 20.4056C18.9229 20.4686 19.0856 20.5011 19.2498 20.5011C19.4141 20.5011 19.5767 20.4686 19.7284 20.4056C19.88 20.3425 20.0177 20.25 20.1336 20.1336C20.2497 20.0176 20.3419 19.8798 20.4048 19.7282C20.4677 19.5765 20.5001 19.414 20.5001 19.2498C20.5001 19.0856 20.4677 18.9231 20.4048 18.7714C20.3419 18.6198 20.2497 18.482 20.1336 18.3661L12.2673 10.4998Z" fill="#3A3A3A"/>
</svg>
