<?xml version="1.0" encoding="utf-8"?>
<svg width="9" height="8" viewBox="0 0 9 8" fill="none" xmlns="http://www.w3.org/2000/svg">
<path fill-rule="evenodd" clip-rule="evenodd" d="M5.44263 4.00008L8.30451 1.13814C8.56516 0.877482 8.56516 0.456157 8.30451 0.195496C8.04385 -0.0651653 7.62254 -0.0651653 7.36188 0.195496L4.5 3.05744L1.63812 0.195496C1.37746 -0.0651653 0.956148 -0.0651653 0.695492 0.195496C0.434836 0.456157 0.434836 0.877482 0.695492 1.13814L3.55737 4.00008L0.695492 6.86202C0.434836 7.12269 0.434836 7.54401 0.695492 7.80467C0.825486 7.93467 0.996146 8 1.16681 8C1.33747 8 1.50812 7.93467 1.63812 7.80467L4.5 4.94273L7.36188 7.80467C7.49188 7.93467 7.66254 8 7.83319 8C8.00385 8 8.17451 7.93467 8.30451 7.80467C8.56516 7.54401 8.56516 7.12269 8.30451 6.86202L5.44263 4.00008Z" fill="#BE4E2E"/>
</svg>
