<svg width="36" height="35" viewBox="0 0 36 35" fill="none" xmlns="http://www.w3.org/2000/svg">
<path d="M15.0312 10.375H20.9688C21.1262 10.375 21.2772 10.3124 21.3886 10.2011C21.4999 10.0897 21.5625 9.93872 21.5625 9.78125C21.5625 9.62378 21.4999 9.47276 21.3886 9.36141C21.2772 9.25006 21.1262 9.1875 20.9688 9.1875H15.0312C14.8738 9.1875 14.7228 9.25006 14.6114 9.36141C14.5001 9.47276 14.4375 9.62378 14.4375 9.78125C14.4375 9.93872 14.5001 10.0897 14.6114 10.2011C14.7228 10.3124 14.8738 10.375 15.0312 10.375ZM24.5312 11.5625H11.4688C11.3113 11.5625 11.1603 11.6251 11.0489 11.7364C10.9376 11.8478 10.875 11.9988 10.875 12.1562C10.875 12.3137 10.9376 12.4647 11.0489 12.5761C11.1603 12.6874 11.3113 12.75 11.4688 12.75H12.0625V23.4375C12.0625 23.7524 12.1876 24.0545 12.4103 24.2772C12.633 24.4999 12.9351 24.625 13.25 24.625H22.75C23.0649 24.625 23.367 24.4999 23.5897 24.2772C23.8124 24.0545 23.9375 23.7524 23.9375 23.4375V12.75H24.5312C24.6887 12.75 24.8397 12.6874 24.9511 12.5761C25.0624 12.4647 25.125 12.3137 25.125 12.1562C25.125 11.9988 25.0624 11.8478 24.9511 11.7364C24.8397 11.6251 24.6887 11.5625 24.5312 11.5625Z" fill="black"/>
<rect x="1" y="0.5" width="34" height="34" rx="3.5" stroke="#DBDBDB"/>
</svg>
