<svg width="11" height="11" viewBox="0 0 11 11" fill="none" xmlns="http://www.w3.org/2000/svg">
<g clip-path="url(#clip0_5181_19375)">
<path d="M10.2079 2.46853C10.1482 2.40642 10.0763 2.35731 9.99678 2.32426C9.91722 2.29121 9.83169 2.27494 9.74555 2.27647H0.654446C0.476608 2.27647 0.323667 2.34049 0.195623 2.46853C0.133749 2.52711 0.0844845 2.5977 0.0508472 2.67598C0.0172099 2.75427 -9.23137e-05 2.83859 3.70403e-07 2.9238C3.70403e-07 3.10164 0.0640223 3.25458 0.192066 3.38262L4.74473 7.93173C4.87278 8.05978 5.02216 8.1238 5.2 8.1238C5.37784 8.1238 5.52722 8.05978 5.65527 7.93173L10.2079 3.37906C10.3324 3.25458 10.4 3.10164 10.4 2.9238C10.4 2.74596 10.3324 2.59657 10.2044 2.46853H10.2079Z" fill="black"/>
</g>
<defs>
<clipPath id="clip0_5181_19375">
<rect width="10.4" height="10.4" fill="white"/>
</clipPath>
</defs>
</svg>
