<?xml version="1.0" encoding="utf-8"?>
<svg width="23" height="22" viewBox="0 0 23 22" fill="none" xmlns="http://www.w3.org/2000/svg">
<path d="M11.0229 1.19517C11.1693 0.727827 11.8307 0.727823 11.9771 1.19517L13.8342 7.12224C14.0302 7.74791 14.6099 8.17376 15.2656 8.17376H21.3503C21.8302 8.17376 22.0345 8.78429 21.6511 9.0731L16.6667 12.8286C16.16 13.2104 15.9483 13.8697 16.1379 14.4751L18.0269 20.5042C18.1723 20.9681 17.6372 21.3456 17.2489 21.053L12.4026 17.4016C11.8682 16.9989 11.1318 16.9989 10.5974 17.4016L5.75106 21.053C5.36282 21.3456 4.82771 20.9681 4.97305 20.5042L6.86206 14.4751C7.05174 13.8697 6.84002 13.2104 6.33331 12.8286L1.34886 9.0731C0.965542 8.78428 1.1698 8.17376 1.64975 8.17376H7.73444C8.39011 8.17376 8.9698 7.74791 9.16583 7.12224L11.0229 1.19517Z" stroke="#F2A124"/>
</svg>
