<?xml version="1.0" encoding="utf-8"?>
<svg width="24" height="20" viewBox="0 0 24 20" fill="none" xmlns="http://www.w3.org/2000/svg">
<path fill-rule="evenodd" clip-rule="evenodd" d="M19.0225 13.8152C19.823 13.8152 20.473 14.4646 20.473 15.2657C20.473 16.0676 19.823 16.7162 19.0225 16.7162C18.2205 16.7179 17.5708 16.0679 17.5708 15.2657C17.5708 14.4646 18.2205 13.8152 19.0225 13.8152ZM18.0068 2.63604V11.2709L5.99101 11.2721V2.6372L18.0068 2.63604ZM4.59914 0.250977C4.16436 0.250977 3.81538 0.614976 3.81538 1.06622V9.62947H1.87289C1.12063 9.62947 0.513672 10.2072 0.513672 10.9248V18.4524C0.513672 19.17 1.12034 19.7492 1.87289 19.7492H22.1252C22.8789 19.7492 23.4853 19.17 23.4853 18.4524V10.9248C23.4853 10.2072 22.8789 9.62947 22.1252 9.62947H20.1844V1.06622C20.1844 0.614688 19.834 0.250977 19.3989 0.250977H4.59914Z" fill="#BE4E2E"/>
</svg>
