<?xml version="1.0" encoding="utf-8"?>
<svg width="23" height="22" viewBox="0 0 23 22" fill="none" xmlns="http://www.w3.org/2000/svg">
<path fill-rule="evenodd" clip-rule="evenodd" d="M3.8958 14.3958C4.29853 13.9931 4.95147 13.9931 5.35421 14.3958L7.375 16.4166L9.39577 14.3958C9.79851 13.9931 10.4515 13.9931 10.8542 14.3958C11.2569 14.7985 11.2569 15.4515 10.8542 15.8542L8.10423 18.6042C7.7015 19.0069 7.04853 19.0069 6.6458 18.6042L3.8958 15.8542C3.49307 15.4515 3.49307 14.7985 3.8958 14.3958Z" fill="black"/>
<path fill-rule="evenodd" clip-rule="evenodd" d="M7.375 3.09375C7.94453 3.09375 8.40625 3.55545 8.40625 4.125V17.875C8.40625 18.4445 7.94453 18.9062 7.375 18.9062C6.80545 18.9062 6.34375 18.4445 6.34375 17.875V4.125C6.34375 3.55545 6.80545 3.09375 7.375 3.09375Z" fill="black"/>
<path fill-rule="evenodd" clip-rule="evenodd" d="M14.8958 3.3958C15.2985 2.99307 15.9515 2.99307 16.3542 3.3958L19.1042 6.1458C19.5069 6.54853 19.5069 7.2015 19.1042 7.60423C18.7015 8.0069 18.0485 8.0069 17.6458 7.60423L15.625 5.58341L13.6042 7.60423C13.2015 8.0069 12.5485 8.0069 12.1458 7.60423C11.7431 7.2015 11.7431 6.54853 12.1458 6.1458L14.8958 3.3958Z" fill="black"/>
<path fill-rule="evenodd" clip-rule="evenodd" d="M15.625 3.09375C16.1945 3.09375 16.6562 3.55545 16.6562 4.125V17.875C16.6562 18.4445 16.1945 18.9062 15.625 18.9062C15.0555 18.9062 14.5938 18.4445 14.5938 17.875V4.125C14.5938 3.55545 15.0555 3.09375 15.625 3.09375Z" fill="black"/>
</svg>
