<?xml version="1.0" encoding="utf-8"?>
<svg width="17" height="16" viewBox="0 0 17 16" fill="none" xmlns="http://www.w3.org/2000/svg">
<path d="M12.25 2.75C12.25 2.30499 12.382 1.86998 12.6292 1.49997C12.8764 1.12996 13.2278 0.841569 13.639 0.671272C14.0501 0.500975 14.5025 0.456417 14.939 0.543234C15.3754 0.630051 15.7763 0.844343 16.091 1.15901C16.4057 1.47368 16.6199 1.87459 16.7068 2.31105C16.7936 2.74751 16.749 3.19991 16.5787 3.61104C16.4084 4.02217 16.12 4.37357 15.75 4.62081C15.38 4.86804 14.945 5 14.5 5C13.9033 5 13.331 4.76295 12.909 4.34099C12.4871 3.91903 12.25 3.34674 12.25 2.75ZM1 3.5H10C10.1989 3.5 10.3897 3.42098 10.5303 3.28033C10.671 3.13968 10.75 2.94891 10.75 2.75C10.75 2.55109 10.671 2.36032 10.5303 2.21967C10.3897 2.07902 10.1989 2 10 2H1C0.801088 2 0.610322 2.07902 0.46967 2.21967C0.329018 2.36032 0.25 2.55109 0.25 2.75C0.25 2.94891 0.329018 3.13968 0.46967 3.28033C0.610322 3.42098 0.801088 3.5 1 3.5ZM5.5 5.75C5.03579 5.75131 4.58335 5.89616 4.2047 6.1647C3.82605 6.43325 3.53973 6.81234 3.385 7.25H1C0.801088 7.25 0.610322 7.32902 0.46967 7.46967C0.329018 7.61032 0.25 7.80109 0.25 8C0.25 8.19891 0.329018 8.38968 0.46967 8.53033C0.610322 8.67098 0.801088 8.75 1 8.75H3.385C3.52259 9.13916 3.76458 9.48297 4.08448 9.74381C4.40439 10.0046 4.78988 10.1725 5.19877 10.2289C5.60766 10.2853 6.02419 10.2281 6.40278 10.0637C6.78137 9.89923 7.10742 9.6338 7.34526 9.29645C7.58309 8.95909 7.72355 8.56281 7.75125 8.15098C7.77894 7.73914 7.69282 7.32762 7.5023 6.96146C7.31178 6.59529 7.0242 6.28859 6.67105 6.07492C6.31789 5.86125 5.91276 5.74884 5.5 5.75ZM16 7.25H10C9.80109 7.25 9.61032 7.32902 9.46967 7.46967C9.32902 7.61032 9.25 7.80109 9.25 8C9.25 8.19891 9.32902 8.38968 9.46967 8.53033C9.61032 8.67098 9.80109 8.75 10 8.75H16C16.1989 8.75 16.3897 8.67098 16.5303 8.53033C16.671 8.38968 16.75 8.19891 16.75 8C16.75 7.80109 16.671 7.61032 16.5303 7.46967C16.3897 7.32902 16.1989 7.25 16 7.25ZM7 12.5H1C0.801088 12.5 0.610322 12.579 0.46967 12.7197C0.329018 12.8603 0.25 13.0511 0.25 13.25C0.25 13.4489 0.329018 13.6397 0.46967 13.7803C0.610322 13.921 0.801088 14 1 14H7C7.19891 14 7.38968 13.921 7.53033 13.7803C7.67098 13.6397 7.75 13.4489 7.75 13.25C7.75 13.0511 7.67098 12.8603 7.53033 12.7197C7.38968 12.579 7.19891 12.5 7 12.5ZM16 12.5H13.615C13.4381 11.9996 13.0899 11.5778 12.6321 11.3093C12.1743 11.0407 11.6363 10.9427 11.1132 11.0324C10.5901 11.1222 10.1155 11.394 9.77342 11.7998C9.43131 12.2056 9.24368 12.7192 9.24368 13.25C9.24368 13.7808 9.43131 14.2944 9.77342 14.7002C10.1155 15.106 10.5901 15.3778 11.1132 15.4676C11.6363 15.5574 12.1743 15.4593 12.6321 15.1907C13.0899 14.9222 13.4381 14.5004 13.615 14H16C16.1989 14 16.3897 13.921 16.5303 13.7803C16.671 13.6397 16.75 13.4489 16.75 13.25C16.75 13.0511 16.671 12.8603 16.5303 12.7197C16.3897 12.579 16.1989 12.5 16 12.5Z" fill="black"/>
</svg>
