<svg width="20" height="20" viewBox="0 0 20 20" fill="none" xmlns="http://www.w3.org/2000/svg">
<path d="M10 0.78125C8.17671 0.78125 6.39436 1.32192 4.87834 2.33489C3.36233 3.34786 2.18074 4.78763 1.48299 6.47214C0.785244 8.15664 0.602682 10.0102 0.95839 11.7985C1.3141 13.5868 2.1921 15.2294 3.48136 16.5186C4.77063 17.8079 6.41325 18.6859 8.20152 19.0416C9.98978 19.3973 11.8434 19.2148 13.5279 18.517C15.2124 17.8193 16.6521 16.6377 17.6651 15.1217C18.6781 13.6056 19.2188 11.8233 19.2188 10C19.2163 7.5558 18.2442 5.21241 16.5159 3.4841C14.7876 1.75579 12.4442 0.783732 10 0.78125ZM10 18.2813C8.36213 18.2813 6.76103 17.7956 5.39919 16.8856C4.03734 15.9757 2.97592 14.6823 2.34913 13.1691C1.72234 11.6559 1.55834 9.99081 1.87788 8.38441C2.19741 6.778 2.98612 5.30243 4.14428 4.14427C5.30243 2.98612 6.77801 2.19741 8.38441 1.87787C9.99082 1.55834 11.6559 1.72233 13.1691 2.34912C14.6823 2.97591 15.9757 4.03734 16.8856 5.39918C17.7956 6.76103 18.2813 8.36212 18.2813 10C18.2788 12.1956 17.4055 14.3005 15.853 15.853C14.3005 17.4055 12.1956 18.2788 10 18.2813Z" fill="#BE4E2E"/>
<path d="M10 7.93433C9.62729 7.93515 9.27009 8.08358 9.00654 8.34712C8.743 8.61066 8.59458 8.96787 8.59375 9.34058V13.8937C8.59375 14.2667 8.74191 14.6243 9.00563 14.8881C9.26935 15.1518 9.62704 15.3 10 15.3C10.373 15.3 10.7306 15.1518 10.9944 14.8881C11.2581 14.6243 11.4062 14.2667 11.4062 13.8937V9.34058C11.4054 8.96787 11.257 8.61066 10.9935 8.34712C10.7299 8.08358 10.3727 7.93515 10 7.93433Z" fill="#BE4E2E"/>
<path d="M10 7.51245C10.7767 7.51245 11.4062 6.88285 11.4062 6.1062C11.4062 5.32955 10.7767 4.69995 10 4.69995C9.22335 4.69995 8.59375 5.32955 8.59375 6.1062C8.59375 6.88285 9.22335 7.51245 10 7.51245Z" fill="#BE4E2E"/>
</svg>
