<?xml version="1.0" encoding="utf-8"?>
<svg width="15" height="15" viewBox="0 0 15 15" fill="none" xmlns="http://www.w3.org/2000/svg">
<path d="M7.5 0C3.35811 0 0 3.35811 0 7.5C0 11.6424 3.35811 15 7.5 15C11.6424 15 15 11.6428 15 7.5C15 3.35811 11.6423 0 7.5 0ZM7.5 13.5937C4.13439 13.5937 1.40627 10.8656 1.40627 7.5C1.40627 4.13439 4.13439 1.40627 7.5 1.40627C10.8656 1.40627 13.5937 4.13439 13.5937 7.5C13.5937 10.8656 10.8656 13.5937 7.5 13.5937ZM7.50047 3.2892C6.9633 3.2892 6.55686 3.56954 6.55686 4.02234V8.17545C6.55686 8.62872 6.96325 8.90811 7.50047 8.90811C8.02453 8.90811 8.44409 8.61703 8.44409 8.17545V4.02234C8.44404 3.58029 8.02453 3.2892 7.50047 3.2892ZM7.50047 9.84375C6.98438 9.84375 6.56436 10.2638 6.56436 10.7803C6.56436 11.2959 6.98438 11.7159 7.50047 11.7159C8.01656 11.7159 8.43612 11.2959 8.43612 10.7803C8.43606 10.2637 8.01656 9.84375 7.50047 9.84375Z" fill="#E2574C"/>
</svg>
