<svg width="99" height="18" viewBox="0 0 99 18" fill="none" xmlns="http://www.w3.org/2000/svg">
<path d="M93.5301 3.89844C90.5793 3.89844 88.0605 5.76578 88.0605 8.88105C88.0605 11.9963 90.5793 13.8637 93.5301 13.8637C96.4809 13.8637 98.9997 11.9963 98.9997 8.88105C98.9905 5.76578 96.4809 3.89844 93.5301 3.89844ZM93.5301 11.4225C92.1696 11.4225 90.9838 10.4569 90.9838 8.88105C90.9838 7.32342 92.1696 6.33965 93.5301 6.33965C94.8906 6.33965 96.0765 7.32342 96.0765 8.88105C96.0765 10.4569 94.8906 11.4225 93.5301 11.4225Z" fill="white"/>
<path d="M81.9935 4.0625H77.7741C77.673 4.0625 77.5811 4.1627 77.5811 4.25379V13.5085C77.5811 13.6087 77.6822 13.6998 77.7741 13.6998H82.0211C85.5418 13.6998 87.4538 11.7687 87.4538 8.88115C87.463 5.93895 85.1925 4.0625 81.9935 4.0625ZM82.0119 11.2586H80.5043V6.50371H81.9935C83.5011 6.50371 84.5398 7.36906 84.5398 8.88115C84.5398 10.3477 83.7125 11.2586 82.0119 11.2586Z" fill="white"/>
<path d="M71.2479 3.89844C68.2971 3.89844 65.7783 5.76578 65.7783 8.88105C65.7783 11.9963 68.2971 13.8637 71.2479 13.8637C74.1987 13.8637 76.7175 11.9963 76.7175 8.88105C76.7175 5.76578 74.1987 3.89844 71.2479 3.89844ZM71.2479 11.4225C69.8874 11.4225 68.7015 10.4569 68.7015 8.88105C68.7015 7.32342 69.8874 6.33965 71.2479 6.33965C72.6084 6.33965 73.7942 7.32342 73.7942 8.88105C73.7942 10.4569 72.6084 11.4225 71.2479 11.4225Z" fill="white"/>
<path d="M64.7119 4.0625H62.5424C62.4321 4.0625 62.3126 4.10805 62.2299 4.22646L59.0033 8.61699H58.9666L55.74 4.22646C55.6572 4.11715 55.5469 4.0625 55.4274 4.0625H53.258C53.1569 4.0625 53.0649 4.1627 53.0649 4.25379V13.5085C53.0649 13.6087 53.1661 13.6998 53.258 13.6998H55.7859C55.887 13.6998 55.979 13.5996 55.979 13.5085V8.6261H56.0249L58.9757 12.8071L61.9449 8.6261H61.9817V13.5085C61.9817 13.6087 62.0828 13.6998 62.1747 13.6998H64.7027C64.8038 13.6998 64.8957 13.5996 64.8957 13.5085V4.25379C64.9141 4.15359 64.813 4.0625 64.7119 4.0625Z" fill="white"/>
<path d="M48.5603 8.82682L51.9891 4.28144C52.0259 4.23589 52.0535 4.18124 52.0535 4.15391C52.0535 4.10836 52.0167 4.05371 51.9524 4.05371H48.8729C48.6798 4.05371 48.5971 4.09015 48.45 4.28144L46.7954 6.46759H46.7678L45.1039 4.28144C44.9568 4.09015 44.8741 4.05371 44.6811 4.05371H41.6016C41.5372 4.05371 41.5004 4.09926 41.5004 4.15391C41.5004 4.19035 41.5372 4.23589 41.5648 4.28144L45.0028 8.82682C43.5136 10.7761 41.9968 12.771 41.4545 13.4724C41.4085 13.5362 41.3901 13.5726 41.3901 13.5999C41.3901 13.6455 41.4269 13.7001 41.4913 13.7001H44.5616C44.7546 13.7001 44.8557 13.6637 44.9844 13.5088L46.777 11.1587H46.8045L48.5971 13.5088C48.7258 13.6728 48.8269 13.7001 49.02 13.7001H52.0903C52.1546 13.7001 52.1914 13.6546 52.1914 13.5999C52.1914 13.5635 52.173 13.5362 52.127 13.4724C51.5663 12.7801 50.0403 10.7853 48.5603 8.82682Z" fill="white"/>
<path d="M40.278 11.2589H34.9555V9.97455H39.7265C39.8276 9.97455 39.9563 9.84703 39.9563 9.74683V7.91592C39.9563 7.81572 39.8276 7.6882 39.7265 7.6882H34.9555V6.50403H40.2137C40.3148 6.50403 40.4435 6.3765 40.4435 6.2763V4.28144C40.4435 4.18124 40.3148 4.05371 40.2137 4.05371H32.2345C32.1334 4.05371 32.0415 4.15391 32.0415 4.245V13.4997C32.0415 13.5999 32.1426 13.691 32.2345 13.691H40.278C40.3791 13.691 40.5078 13.5635 40.5078 13.4633V11.4684C40.5078 11.3864 40.3791 11.2589 40.278 11.2589Z" fill="white"/>
<path d="M30.4609 11.2586H26.1771V4.25379C26.1771 4.15359 26.076 4.0625 25.9841 4.0625H23.447C23.3458 4.0625 23.2539 4.1627 23.2539 4.25379V13.5085C23.2539 13.6087 23.355 13.6998 23.447 13.6998H30.4517C30.5528 13.6998 30.6815 13.5723 30.6815 13.4721V11.4772C30.6815 11.3861 30.5528 11.2586 30.4609 11.2586Z" fill="white"/>
<path d="M17.9401 0.373469C17.8298 0.145744 17.5816 0 17.3058 0H1.19127L0.55698 0.373469L0.639713 1.09308L6.66083 8.97235L0.639713 16.8516C0.474247 17.0702 0.437477 17.3435 0.55698 17.5712C0.676483 17.799 0.915489 17.9447 1.19127 17.9447H17.3058C17.5816 17.9447 17.8206 17.799 17.9401 17.5712C18.0596 17.3435 18.0228 17.0611 17.8573 16.8516L11.8362 8.97235L17.8573 1.09308C18.0228 0.874463 18.0504 0.601193 17.9401 0.373469ZM5.67723 14.3649C5.51176 14.5835 5.48418 14.8568 5.59449 15.0845C5.714 15.3122 5.953 15.458 6.22878 15.458H12.2683C12.5441 15.458 12.7831 15.3122 12.9026 15.0845C13.0221 14.8568 12.9853 14.5744 12.8198 14.3649L10.2735 11.0219L10.8251 10.3023L15.4305 16.3233H3.07574L12.8198 3.57072C12.9853 3.35211 13.0221 3.07884 12.9026 2.85111C12.7923 2.62339 12.5441 2.47765 12.2683 2.47765H6.22878C5.953 2.47765 5.714 2.62339 5.59449 2.85111C5.47499 3.07884 5.51176 3.36122 5.67723 3.57072L8.22356 6.91372L7.67201 7.63333L3.07574 1.61229H15.4213L5.67723 14.3649ZM9.25313 12.3609L10.3838 13.8457H8.11325L9.25313 12.3609ZM9.25313 5.58381L8.11325 4.08994H10.3838L9.25313 5.58381Z" fill="white"/>
<path d="M2.1106 2.41388C2.03706 2.65072 1.85321 2.68715 1.70613 2.48675L0.0790454 0.36436C-0.0772279 0.163962 0.00550502 0 0.262896 0H2.36799C2.62538 0 2.77246 0.200398 2.69892 0.437232L2.1106 2.41388Z" fill="white"/>
<path d="M16.6713 2.04041C16.7448 2.27725 16.9286 2.31368 17.0757 2.11329L18.4178 0.36436C18.5741 0.163962 18.4914 0 18.234 0H16.5242C16.2668 0 16.1197 0.200398 16.1932 0.437232L16.6713 2.04041Z" fill="white"/>
<path d="M10.8159 2.48682H13.1968C13.4542 2.48682 13.5277 2.65078 13.3806 2.85118L11.5421 5.25595" fill="white"/>
<path d="M7.57136 2.48682H5.30081C5.04341 2.48682 4.96987 2.65078 5.11695 2.85118L6.87273 5.14664" fill="white"/>
<path d="M15.8994 14.2827L18.4089 17.5802C18.5652 17.7806 18.4825 17.9445 18.2251 17.9445H15.7339" fill="white"/>
<path d="M1.79805 15.3306L0.0790454 17.5805C-0.0772279 17.7809 0.00550502 17.9448 0.262896 17.9448H2.82762" fill="white"/>
<path d="M7.88351 15.4579H5.30959C5.0522 15.4579 4.97866 15.294 5.12574 15.0936L6.77121 12.9438" fill="white"/>
<path d="M10.4761 15.4577H13.1971C13.4545 15.4577 13.528 15.2938 13.3809 15.0934L11.285 12.3516" fill="white"/>
</svg>
