<svg width="20" height="26" viewBox="0 0 20 26" fill="none" xmlns="http://www.w3.org/2000/svg">
<path d="M10 0C4.6245 0 0.25 4.40483 0.25 9.82042C0.25 17.5153 9.0835 25.4605 9.45942 25.7942C9.61433 25.9318 9.80717 26 10 26C10.1928 26 10.3857 25.9318 10.5406 25.7953C10.9165 25.4605 19.75 17.5153 19.75 9.82042C19.75 4.40483 15.3755 0 10 0ZM10 15.1667C7.01325 15.1667 4.58333 12.7368 4.58333 9.75C4.58333 6.76325 7.01325 4.33333 10 4.33333C12.9868 4.33333 15.4167 6.76325 15.4167 9.75C15.4167 12.7368 12.9868 15.1667 10 15.1667Z" fill="#BE4E2E"/>
</svg>
