<svg width="26" height="26" viewBox="0 0 26 26" fill="none" xmlns="http://www.w3.org/2000/svg">
<g clip-path="url(#clip0_5097_11852)">
<path d="M15.1729 15.9298C14.526 16.3611 13.7747 16.589 13 16.589C12.2254 16.589 11.474 16.3611 10.8272 15.9298L0.173113 8.82689C0.114004 8.78749 0.056418 8.7464 0 8.70415V20.3431C0 21.6775 1.08291 22.7365 2.39347 22.7365H23.6065C24.9409 22.7365 25.9999 21.6536 25.9999 20.3431V8.7041C25.9434 8.74645 25.8857 8.78764 25.8265 8.82709L15.1729 15.9298Z" fill="#BE4E2E"/>
<path d="M1.01816 7.55912L11.6722 14.6621C12.0755 14.931 12.5377 15.0654 12.9999 15.0654C13.4622 15.0654 13.9245 14.9309 14.3278 14.6621L24.9818 7.55912C25.6194 7.13433 26 6.42339 26 5.65609C26 4.33674 24.9266 3.26343 23.6073 3.26343H2.39266C1.07336 3.26348 0 4.33679 0 5.65736C0 6.42339 0.380656 7.13433 1.01816 7.55912Z" fill="#BE4E2E"/>
</g>
<defs>
<clipPath id="clip0_5097_11852">
<rect width="26" height="26" fill="white"/>
</clipPath>
</defs>
</svg>
