<svg width="14" height="18" viewBox="0 0 14 18" fill="none" xmlns="http://www.w3.org/2000/svg">
<path d="M12.2243 11.4474C12.7838 10.5113 13.1549 9.32739 13.2269 8.1559C13.2726 7.40399 13.105 6.61469 12.7422 5.87247C12.1731 4.70652 11.1955 4.05154 10.2511 3.41871C9.54625 2.94652 8.88019 2.50063 8.40938 1.86365L8.32491 1.7501C8.04658 1.37622 7.73224 0.952493 7.68239 0.596615C7.63254 0.236583 7.30574 -0.0195934 6.94848 0.00117767C6.58568 0.026103 6.30458 0.326591 6.30458 0.690777V13.0288C5.72437 12.6771 5.00985 12.4611 4.22747 12.4611C2.3193 12.4611 0.765625 13.7032 0.765625 15.2305C0.765625 16.7579 2.3193 18 4.22747 18C6.13564 18 7.68932 16.7579 7.68932 15.2305V7.16027C8.72926 7.55769 10.4311 8.56994 10.8991 10.9337C10.8119 11.0625 10.7288 11.2009 10.6319 11.3117C10.3785 11.5984 10.4062 12.0359 10.6942 12.288C10.9795 12.5428 11.417 12.5123 11.6704 12.2256C11.856 12.0152 12.0208 11.7687 12.1786 11.5111C12.1953 11.4917 12.2105 11.471 12.2243 11.4474Z" fill="#717171"/>
</svg>
