<?xml version="1.0" encoding="utf-8"?>
<svg width="12" height="12" viewBox="0 0 12 12" fill="none" xmlns="http://www.w3.org/2000/svg">
<path d="M6.972 5.99959L11.2984 1.67339C11.4273 1.54449 11.4998 1.36966 11.4998 1.18736C11.4998 1.00506 11.4273 0.830227 11.2984 0.701323C11.1695 0.572418 10.9947 0.5 10.8124 0.5C10.6301 0.5 10.4552 0.572418 10.3263 0.701323L5.99988 5.02752L1.67346 0.701323C1.60962 0.637495 1.53385 0.586865 1.45045 0.552322C1.36705 0.517779 1.27766 0.5 1.18739 0.5C1.09712 0.5 1.00774 0.517779 0.92434 0.552322C0.840941 0.586865 0.765164 0.637495 0.701333 0.701323C0.572422 0.830227 0.5 1.00506 0.5 1.18736C0.5 1.36966 0.572422 1.54449 0.701333 1.67339L5.02776 5.99959L0.701333 10.3258C0.572422 10.4547 0.5 10.6295 0.5 10.8118C0.5 10.9941 0.572422 11.169 0.701333 11.2979C0.830244 11.4268 1.00509 11.4992 1.18739 11.4992C1.3697 11.4992 1.54454 11.4268 1.67346 11.2979L5.99988 6.97166L10.3263 11.2979C10.39 11.3619 10.4657 11.4128 10.5492 11.4475C10.6326 11.4821 10.722 11.5 10.8124 11.5C10.9027 11.5 10.9922 11.4821 11.0756 11.4475C11.159 11.4128 11.2347 11.3619 11.2984 11.2979C11.3623 11.2341 11.413 11.1583 11.4476 11.0749C11.4822 10.9915 11.5 10.9021 11.5 10.8118C11.5 10.7215 11.4822 10.6321 11.4476 10.5487C11.413 10.4653 11.3623 10.3896 11.2984 10.3258L6.972 5.99959Z" fill="#3A3A3A"/>
</svg>
