<?xml version="1.0" encoding="utf-8"?>
<svg width="24" height="24" viewBox="0 0 24 24" fill="none" xmlns="http://www.w3.org/2000/svg">
<rect width="24" height="24" rx="12" fill="black"/>
<path fill-rule="evenodd" clip-rule="evenodd" d="M17.25 11.25H12.75V6.75C12.75 6.336 12.4147 6 12 6C11.5852 6 11.25 6.336 11.25 6.75V11.25H6.75C6.33525 11.25 6 11.586 6 12C6 12.414 6.33525 12.75 6.75 12.75H11.25V17.25C11.25 17.664 11.5852 18 12 18C12.4147 18 12.75 17.664 12.75 17.25V12.75H17.25C17.6647 12.75 18 12.414 18 12C18 11.586 17.6647 11.25 17.25 11.25Z" fill="white" stroke="white" stroke-width="0.5"/>
</svg>
