<?xml version="1.0" encoding="utf-8"?>
<svg width="17" height="17" viewBox="0 0 17 17" fill="none" xmlns="http://www.w3.org/2000/svg">
<path fill-rule="evenodd" clip-rule="evenodd" d="M15.5 7.5H9.5V1.5C9.5 0.948 9.053 0.5 8.5 0.5C7.947 0.5 7.5 0.948 7.5 1.5V7.5H1.5C0.947 7.5 0.5 7.948 0.5 8.5C0.5 9.052 0.947 9.5 1.5 9.5H7.5V15.5C7.5 16.052 7.947 16.5 8.5 16.5C9.053 16.5 9.5 16.052 9.5 15.5V9.5H15.5C16.053 9.5 16.5 9.052 16.5 8.5C16.5 7.948 16.053 7.5 15.5 7.5Z" fill="#272727" stroke="#272727" stroke-width="0.5"/>
</svg>
