<svg width="17" height="17" viewBox="0 0 17 17" fill="none" xmlns="http://www.w3.org/2000/svg">
<path d="M7.54488 1.07953C7.83592 0.141165 9.16408 0.141165 9.45512 1.07952L10.6391 4.89704C10.7689 5.31555 11.1561 5.60081 11.5942 5.60081H15.5212C16.4786 5.60081 16.8887 6.81667 16.1268 7.39654L12.8711 9.87464C12.5368 10.1291 12.3971 10.5653 12.5216 10.9666L13.7461 14.9147C14.0344 15.8443 12.9598 16.5961 12.1853 16.0067L9.10566 13.6626C8.74782 13.3902 8.25218 13.3902 7.89434 13.6626L4.81466 16.0067C4.04023 16.5961 2.96558 15.8443 3.25389 14.9147L4.4784 10.9666C4.60285 10.5653 4.46324 10.1291 4.12894 9.87464L0.873163 7.39654C0.111315 6.81666 0.521398 5.60081 1.47882 5.60081H5.40576C5.84394 5.60081 6.23108 5.31555 6.36088 4.89704L7.54488 1.07953Z" fill="#F2A124"/>
</svg>
