<svg width="66" height="40" viewBox="0 0 66 40" fill="none" xmlns="http://www.w3.org/2000/svg">
<path d="M33.7386 17.665C33.714 19.4687 35.4624 20.4752 36.7795 21.0736C38.1326 21.6876 38.5871 22.0814 38.5818 22.6305C38.5717 23.4708 37.5024 23.8417 36.5018 23.8561C34.7561 23.8813 33.7411 23.4166 32.9342 23.0651L32.3053 25.8091C33.1149 26.1569 34.614 26.4603 36.1686 26.4736C39.8177 26.4736 42.205 24.794 42.218 22.1897C42.2322 18.8846 37.3153 18.7017 37.3489 17.2244C37.3605 16.7764 37.8189 16.2984 38.8233 16.1769C39.3205 16.1155 40.693 16.0685 42.249 16.7366L42.8598 14.0818C42.0229 13.7977 40.9474 13.5256 39.6084 13.5256C36.1738 13.5256 33.758 15.2282 33.7386 17.665ZM48.7283 13.7543C48.0619 13.7543 47.5004 14.1167 47.2498 14.6729L42.0372 26.2786H45.6837L46.4093 24.4087H50.8652L51.2861 26.2786H54.5L51.6954 13.7543H48.7283ZM49.2384 17.1376L50.2907 21.8406H47.4087L49.2384 17.1376ZM29.3175 13.7545L26.4432 26.2785H29.9179L32.7909 13.7542H29.3175V13.7545ZM24.1771 13.7542L20.5604 22.2789L19.0974 15.0307C18.9257 14.2215 18.2478 13.7543 17.495 13.7543H11.5828L11.5 14.118C12.7137 14.3636 14.0928 14.7597 14.9282 15.1835C15.4395 15.4424 15.5853 15.6688 15.7533 16.284L18.5243 26.2786H22.1962L27.8259 13.7543H24.1771" fill="url(#paint0_linear_5263_23206)"/>
<rect x="0.5" y="0.5" width="65" height="39" rx="5.5" stroke="#DBDBDB"/>
<defs>
<linearGradient id="paint0_linear_5263_23206" x1="31.2688" y1="26.7334" x2="31.6183" y2="13.4342" gradientUnits="userSpaceOnUse">
<stop stop-color="#222357"/>
<stop offset="1" stop-color="#254AA5"/>
</linearGradient>
</defs>
</svg>
